<svg xmlns="http://www.w3.org/2000/svg" xmlns:xlink="http://www.w3.org/1999/xlink" contentStyleType="text/css" data-diagram-type="CLASS" height="836px" preserveAspectRatio="none" style="width:2083px;height:836px;" version="1.1" viewBox="0 0 2083 836" width="2083px" zoomAndPan="magnify"><?plantuml 1.2026.6?><defs/><g><!--class OrganizationPolicy--><g class="entity" data-qualified-name="OrganizationPolicy" data-source-line="3" id="ent0001"><rect fill="#10284A" height="145.7813" rx="6" ry="6" style="stroke:#38BDF8;stroke-width:0.5;" width="322.1123" x="777.33" y="7"/><rect fill="#173B69" height="32" rx="6" ry="6" style="stroke:#173B69;stroke-width:0.5;" width="322.1123" x="777.33" y="7"/><rect fill="#173B69" height="6" style="stroke:#173B69;stroke-width:0.5;" width="322.1123" x="777.33" y="33"/><rect fill="none" height="145.7813" rx="6" ry="6" style="stroke:#38BDF8;stroke-width:0.5;" width="322.1123" x="777.33" y="7"/><ellipse cx="868.8769" cy="23" fill="#ADD1B2" rx="11" ry="11" style="stroke:#181818;stroke-width:1;"/><path d="M871.8456,28.6406 Q871.2675,28.9375 870.6269,29.0781 Q869.9863,29.2344 869.2831,29.2344 Q866.7831,29.2344 865.455,27.5938 Q864.1425,25.9375 864.1425,22.8125 Q864.1425,19.6875 865.455,18.0313 Q866.7831,16.375 869.2831,16.375 Q869.9863,16.375 870.6269,16.5313 Q871.2831,16.6875 871.8456,16.9844 L871.8456,19.7031 Q871.2206,19.125 870.6269,18.8594 Q870.0331,18.5781 869.4081,18.5781 Q868.0644,18.5781 867.3769,19.6563 Q866.6894,20.7188 866.6894,22.8125 Q866.6894,24.9063 867.3769,25.9844 Q868.0644,27.0469 869.4081,27.0469 Q870.0331,27.0469 870.6269,26.7813 Q871.2206,26.5 871.8456,25.9219 L871.8456,28.6406 Z " fill="#DDEBFF"/><text fill="#DDEBFF" font-family="Arial" font-size="14" lengthAdjust="spacing" textLength="130.5186" x="889.3769" y="27.8467">OrganizationPolicy</text><line style="stroke:#38BDF8;stroke-width:0.5;" x1="778.33" x2="1098.4423" y1="39" y2="39"/><text fill="#DDEBFF" font-family="Arial" font-size="14" lengthAdjust="spacing" textLength="187.5303" x="783.33" y="55.9951">profile: OrganizationProfile</text><text fill="#DDEBFF" font-family="Arial" font-size="14" lengthAdjust="spacing" textLength="263.71" x="783.33" y="72.292">members: OrganizationMemberPolicy</text><text fill="#DDEBFF" font-family="Arial" font-size="14" lengthAdjust="spacing" textLength="310.1123" x="783.33" y="88.5889">properties: Map&lt;name, PropertyDefinition&gt;</text><text fill="#DDEBFF" font-family="Arial" font-size="14" lengthAdjust="spacing" textLength="258.9316" x="783.33" y="104.8857">rulesets: OrganizationRulesetPolicy[]</text><text fill="#DDEBFF" font-family="Arial" font-size="14" lengthAdjust="spacing" textLength="223.7813" x="783.33" y="121.1826">teams: Map&lt;slug, TeamPolicy&gt;</text><text fill="#DDEBFF" font-family="Arial" font-size="14" lengthAdjust="spacing" textLength="229.2227" x="783.33" y="137.4795">roles: Map&lt;name, RoleHolders&gt;</text><line style="stroke:#38BDF8;stroke-width:0.5;" x1="778.33" x2="1098.4423" y1="144.7813" y2="144.7813"/></g><!--class OrganizationProfile--><g class="entity" data-qualified-name="OrganizationProfile" data-source-line="12" id="ent0002"><rect fill="#10284A" height="162.0781" rx="6" ry="6" style="stroke:#38BDF8;stroke-width:0.5;" width="184.7715" x="7" y="246.08"/><rect fill="#173B69" height="32" rx="6" ry="6" style="stroke:#173B69;stroke-width:0.5;" width="184.7715" x="7" y="246.08"/><rect fill="#173B69" height="6" style="stroke:#173B69;stroke-width:0.5;" width="184.7715" x="7" y="272.08"/><rect fill="none" height="162.0781" rx="6" ry="6" style="stroke:#38BDF8;stroke-width:0.5;" width="184.7715" x="7" y="246.08"/><ellipse cx="30.5219" cy="262.08" fill="#ADD1B2" rx="11" ry="11" style="stroke:#181818;stroke-width:1;"/><path d="M33.4906,267.7206 Q32.9125,268.0175 32.2719,268.1581 Q31.6313,268.3144 30.9281,268.3144 Q28.4281,268.3144 27.1,266.6737 Q25.7875,265.0175 25.7875,261.8925 Q25.7875,258.7675 27.1,257.1112 Q28.4281,255.455 30.9281,255.455 Q31.6313,255.455 32.2719,255.6112 Q32.9281,255.7675 33.4906,256.0644 L33.4906,258.7831 Q32.8656,258.205 32.2719,257.9394 Q31.6781,257.6581 31.0531,257.6581 Q29.7094,257.6581 29.0219,258.7362 Q28.3344,259.7987 28.3344,261.8925 Q28.3344,263.9862 29.0219,265.0644 Q29.7094,266.1269 31.0531,266.1269 Q31.6781,266.1269 32.2719,265.8612 Q32.8656,265.58 33.4906,265.0019 L33.4906,267.7206 Z " fill="#DDEBFF"/><text fill="#DDEBFF" font-family="Arial" font-size="14" lengthAdjust="spacing" textLength="133.834" x="46.4156" y="266.9267">OrganizationProfile</text><line style="stroke:#38BDF8;stroke-width:0.5;" x1="8" x2="190.7715" y1="278.08" y2="278.08"/><text fill="#DDEBFF" font-family="Arial" font-size="14" lengthAdjust="spacing" textLength="89.0586" x="13" y="295.0751">name: string</text><text fill="#DDEBFF" font-family="Arial" font-size="14" lengthAdjust="spacing" textLength="127.1963" x="13" y="311.372">description: string</text><text fill="#DDEBFF" font-family="Arial" font-size="14" lengthAdjust="spacing" textLength="113.8799" x="13" y="327.6689">company: string</text><text fill="#DDEBFF" font-family="Arial" font-size="14" lengthAdjust="spacing" textLength="103.5918" x="13" y="343.9657">website: string</text><text fill="#DDEBFF" font-family="Arial" font-size="14" lengthAdjust="spacing" textLength="104.9043" x="13" y="360.2626">location: string</text><text fill="#DDEBFF" font-family="Arial" font-size="14" lengthAdjust="spacing" textLength="87.9648" x="13" y="376.5595">email: string</text><text fill="#DDEBFF" font-family="Arial" font-size="14" lengthAdjust="spacing" textLength="172.7715" x="13" y="392.8564">twitter_username: string</text><line style="stroke:#38BDF8;stroke-width:0.5;" x1="8" x2="190.7715" y1="400.1581" y2="400.1581"/></g><!--class OrganizationMemberPolicy--><g class="entity" data-qualified-name="OrganizationMemberPolicy" data-source-line="22" id="ent0003"><rect fill="#10284A" height="194.6719" rx="6" ry="6" style="stroke:#38BDF8;stroke-width:0.5;" width="324.915" x="226.93" y="229.78"/><rect fill="#173B69" height="32" rx="6" ry="6" style="stroke:#173B69;stroke-width:0.5;" width="324.915" x="226.93" y="229.78"/><rect fill="#173B69" height="6" style="stroke:#173B69;stroke-width:0.5;" width="324.915" x="226.93" y="255.78"/><rect fill="none" height="194.6719" rx="6" ry="6" style="stroke:#38BDF8;stroke-width:0.5;" width="324.915" x="226.93" y="229.78"/><ellipse cx="291.0853" cy="245.78" fill="#ADD1B2" rx="11" ry="11" style="stroke:#181818;stroke-width:1;"/><path d="M294.054,251.4206 Q293.4759,251.7175 292.8353,251.8581 Q292.1946,252.0144 291.4915,252.0144 Q288.9915,252.0144 287.6634,250.3737 Q286.3509,248.7175 286.3509,245.5925 Q286.3509,242.4675 287.6634,240.8112 Q288.9915,239.155 291.4915,239.155 Q292.1946,239.155 292.8353,239.3112 Q293.4915,239.4675 294.054,239.7644 L294.054,242.4831 Q293.429,241.905 292.8353,241.6394 Q292.2415,241.3581 291.6165,241.3581 Q290.2728,241.3581 289.5853,242.4362 Q288.8978,243.4987 288.8978,245.5925 Q288.8978,247.6862 289.5853,248.7644 Q290.2728,249.8269 291.6165,249.8269 Q292.2415,249.8269 292.8353,249.5612 Q293.429,249.28 294.054,248.7019 L294.054,251.4206 Z " fill="#DDEBFF"/><text fill="#DDEBFF" font-family="Arial" font-size="14" lengthAdjust="spacing" textLength="188.1045" x="311.5853" y="250.6267">OrganizationMemberPolicy</text><line style="stroke:#38BDF8;stroke-width:0.5;" x1="227.93" x2="550.845" y1="261.78" y2="261.78"/><text fill="#DDEBFF" font-family="Arial" font-size="14" lengthAdjust="spacing" textLength="312.915" x="232.93" y="278.7751">base_permission: none | read | write | admin</text><text fill="#DDEBFF" font-family="Arial" font-size="14" lengthAdjust="spacing" textLength="199.5" x="232.93" y="295.072">create_repositories: boolean</text><text fill="#DDEBFF" font-family="Arial" font-size="14" lengthAdjust="spacing" textLength="248.623" x="232.93" y="311.3689">create_public_repositories: boolean</text><text fill="#DDEBFF" font-family="Arial" font-size="14" lengthAdjust="spacing" textLength="255.999" x="232.93" y="327.6657">create_private_repositories: boolean</text><text fill="#DDEBFF" font-family="Arial" font-size="14" lengthAdjust="spacing" textLength="260.4629" x="232.93" y="343.9626">create_internal_repositories: boolean</text><text fill="#DDEBFF" font-family="Arial" font-size="14" lengthAdjust="spacing" textLength="238.6084" x="232.93" y="360.2595">fork_private_repositories: boolean</text><text fill="#DDEBFF" font-family="Arial" font-size="14" lengthAdjust="spacing" textLength="159.1475" x="232.93" y="376.5564">create_pages: boolean</text><text fill="#DDEBFF" font-family="Arial" font-size="14" lengthAdjust="spacing" textLength="274.6475" x="232.93" y="392.8532">web_commit_signoff_required: boolean</text><text fill="#DDEBFF" font-family="Arial" font-size="14" lengthAdjust="spacing" textLength="214.9082" x="232.93" y="409.1501">deploy_keys_enabled: boolean</text><line style="stroke:#38BDF8;stroke-width:0.5;" x1="227.93" x2="550.845" y1="416.4519" y2="416.4519"/></g><!--class PropertyDefinition--><g class="entity" data-qualified-name="PropertyDefinition" data-source-line="34" id="ent0004"><rect fill="#10284A" height="162.0781" rx="6" ry="6" style="stroke:#38BDF8;stroke-width:0.5;" width="454.3125" x="587.23" y="246.08"/><rect fill="#173B69" height="32" rx="6" ry="6" style="stroke:#173B69;stroke-width:0.5;" width="454.3125" x="587.23" y="246.08"/><rect fill="#173B69" height="6" style="stroke:#173B69;stroke-width:0.5;" width="454.3125" x="587.23" y="272.08"/><rect fill="none" height="162.0781" rx="6" ry="6" style="stroke:#38BDF8;stroke-width:0.5;" width="454.3125" x="587.23" y="246.08"/><ellipse cx="746.3433" cy="262.08" fill="#ADD1B2" rx="11" ry="11" style="stroke:#181818;stroke-width:1;"/><path d="M749.312,267.7206 Q748.7339,268.0175 748.0933,268.1581 Q747.4527,268.3144 746.7495,268.3144 Q744.2495,268.3144 742.9214,266.6737 Q741.6089,265.0175 741.6089,261.8925 Q741.6089,258.7675 742.9214,257.1112 Q744.2495,255.455 746.7495,255.455 Q747.4527,255.455 748.0933,255.6112 Q748.7495,255.7675 749.312,256.0644 L749.312,258.7831 Q748.687,258.205 748.0933,257.9394 Q747.4995,257.6581 746.8745,257.6581 Q745.5308,257.6581 744.8433,258.7362 Q744.1558,259.7987 744.1558,261.8925 Q744.1558,263.9862 744.8433,265.0644 Q745.5308,266.1269 746.8745,266.1269 Q747.4995,266.1269 748.0933,265.8612 Q748.687,265.58 749.312,265.0019 L749.312,267.7206 Z " fill="#DDEBFF"/><text fill="#DDEBFF" font-family="Arial" font-size="14" lengthAdjust="spacing" textLength="127.5859" x="766.8433" y="266.9267">PropertyDefinition</text><line style="stroke:#38BDF8;stroke-width:0.5;" x1="588.23" x2="1040.5425" y1="278.08" y2="278.08"/><text fill="#DDEBFF" font-family="Arial" font-size="14" lengthAdjust="spacing" textLength="442.3125" x="593.23" y="295.0751">value_type: string | url | true_false | single_select | multi_select</text><text fill="#DDEBFF" font-family="Arial" font-size="14" lengthAdjust="spacing" textLength="127.1963" x="593.23" y="311.372">description: string</text><text fill="#DDEBFF" font-family="Arial" font-size="14" lengthAdjust="spacing" textLength="124.4141" x="593.23" y="327.6689">required: boolean</text><text fill="#DDEBFF" font-family="Arial" font-size="14" lengthAdjust="spacing" textLength="208.585" x="593.23" y="343.9657">default_value: string | string[]</text><text fill="#DDEBFF" font-family="Arial" font-size="14" lengthAdjust="spacing" textLength="166.6875" x="593.23" y="360.2626">allowed_values: string[]</text><text fill="#DDEBFF" font-family="Arial" font-size="14" lengthAdjust="spacing" textLength="375.6758" x="593.23" y="376.5595">values_editable_by: org_actors | org_and_repo_actors</text><text fill="#DDEBFF" font-family="Arial" font-size="14" lengthAdjust="spacing" textLength="163.748" x="593.23" y="392.8564">mode: present | absent</text><line style="stroke:#38BDF8;stroke-width:0.5;" x1="588.23" x2="1040.5425" y1="400.1581" y2="400.1581"/></g><!--class OrganizationRulesetPolicy--><g class="entity" data-qualified-name="OrganizationRulesetPolicy" data-source-line="44" id="ent0005"><rect fill="#10284A" height="113.1875" rx="6" ry="6" style="stroke:#38BDF8;stroke-width:0.5;" width="300.4629" x="1076.15" y="270.52"/><rect fill="#173B69" height="32" rx="6" ry="6" style="stroke:#173B69;stroke-width:0.5;" width="300.4629" x="1076.15" y="270.52"/><rect fill="#173B69" height="6" style="stroke:#173B69;stroke-width:0.5;" width="300.4629" x="1076.15" y="296.52"/><rect fill="none" height="113.1875" rx="6" ry="6" style="stroke:#38BDF8;stroke-width:0.5;" width="300.4629" x="1076.15" y="270.52"/><ellipse cx="1130.6222" cy="286.52" fill="#ADD1B2" rx="11" ry="11" style="stroke:#181818;stroke-width:1;"/><path d="M1133.5909,292.1606 Q1133.0128,292.4575 1132.3722,292.5981 Q1131.7315,292.7544 1131.0284,292.7544 Q1128.5284,292.7544 1127.2003,291.1138 Q1125.8878,289.4575 1125.8878,286.3325 Q1125.8878,283.2075 1127.2003,281.5513 Q1128.5284,279.895 1131.0284,279.895 Q1131.7315,279.895 1132.3722,280.0513 Q1133.0284,280.2075 1133.5909,280.5044 L1133.5909,283.2231 Q1132.9659,282.645 1132.3722,282.3794 Q1131.7784,282.0981 1131.1534,282.0981 Q1129.8097,282.0981 1129.1222,283.1763 Q1128.4347,284.2388 1128.4347,286.3325 Q1128.4347,288.4263 1129.1222,289.5044 Q1129.8097,290.5669 1131.1534,290.5669 Q1131.7784,290.5669 1132.3722,290.3013 Q1132.9659,290.02 1133.5909,289.4419 L1133.5909,292.1606 Z " fill="#DDEBFF"/><text fill="#DDEBFF" font-family="Arial" font-size="14" lengthAdjust="spacing" textLength="183.0186" x="1151.1222" y="291.3667">OrganizationRulesetPolicy</text><line style="stroke:#38BDF8;stroke-width:0.5;" x1="1077.15" x2="1375.6129" y1="302.52" y2="302.52"/><text fill="#DDEBFF" font-family="Arial" font-size="14" lengthAdjust="spacing" textLength="89.0586" x="1082.15" y="319.5151">name: string</text><text fill="#DDEBFF" font-family="Arial" font-size="14" lengthAdjust="spacing" textLength="288.4629" x="1082.15" y="335.812">enforcement: active | evaluate | disabled</text><text fill="#DDEBFF" font-family="Arial" font-size="14" lengthAdjust="spacing" textLength="174.665" x="1082.15" y="352.1089">target_branches: string[]</text><text fill="#DDEBFF" font-family="Arial" font-size="14" lengthAdjust="spacing" textLength="171.7598" x="1082.15" y="368.4057">bypass: RulesetBypass[]</text><line style="stroke:#38BDF8;stroke-width:0.5;" x1="1077.15" x2="1375.6129" y1="375.7075" y2="375.7075"/></g><!--class RulesetRepositories--><g class="entity" data-qualified-name="RulesetRepositories" data-source-line="51" id="ent0006"><rect fill="#10284A" height="129.4844" rx="6" ry="6" style="stroke:#38BDF8;stroke-width:0.5;" width="320.7109" x="1066.03" y="517.75"/><rect fill="#173B69" height="32" rx="6" ry="6" style="stroke:#173B69;stroke-width:0.5;" width="320.7109" x="1066.03" y="517.75"/><rect fill="#173B69" height="6" style="stroke:#173B69;stroke-width:0.5;" width="320.7109" x="1066.03" y="543.75"/><rect fill="none" height="129.4844" rx="6" ry="6" style="stroke:#38BDF8;stroke-width:0.5;" width="320.7109" x="1066.03" y="517.75"/><ellipse cx="1152.5935" cy="533.75" fill="#ADD1B2" rx="11" ry="11" style="stroke:#181818;stroke-width:1;"/><path d="M1155.5622,539.3906 Q1154.9841,539.6875 1154.3435,539.8281 Q1153.7029,539.9844 1152.9997,539.9844 Q1150.4997,539.9844 1149.1716,538.3437 Q1147.8591,536.6875 1147.8591,533.5625 Q1147.8591,530.4375 1149.1716,528.7812 Q1150.4997,527.125 1152.9997,527.125 Q1153.7029,527.125 1154.3435,527.2812 Q1154.9997,527.4375 1155.5622,527.7344 L1155.5622,530.4531 Q1154.9372,529.875 1154.3435,529.6094 Q1153.7497,529.3281 1153.1247,529.3281 Q1151.781,529.3281 1151.0935,530.4062 Q1150.406,531.4687 1150.406,533.5625 Q1150.406,535.6562 1151.0935,536.7344 Q1151.781,537.7969 1153.1247,537.7969 Q1153.7497,537.7969 1154.3435,537.5312 Q1154.9372,537.25 1155.5622,536.6719 L1155.5622,539.3906 Z " fill="#DDEBFF"/><text fill="#DDEBFF" font-family="Arial" font-size="14" lengthAdjust="spacing" textLength="139.084" x="1173.0935" y="538.5967">RulesetRepositories</text><line style="stroke:#38BDF8;stroke-width:0.5;" x1="1067.03" x2="1385.7409" y1="549.75" y2="549.75"/><text fill="#DDEBFF" font-family="Arial" font-size="14" lengthAdjust="spacing" textLength="111.002" x="1072.03" y="566.7451">include: string[]</text><text fill="#DDEBFF" font-family="Arial" font-size="14" lengthAdjust="spacing" textLength="115.1377" x="1072.03" y="583.042">exclude: string[]</text><text fill="#DDEBFF" font-family="Arial" font-size="14" lengthAdjust="spacing" textLength="246.8525" x="1072.03" y="599.3389">properties: RulesetPropertyMatch[]</text><text fill="#DDEBFF" font-family="Arial" font-size="14" lengthAdjust="spacing" textLength="308.7109" x="1072.03" y="615.6357">exclude_properties: RulesetPropertyMatch[]</text><text fill="#DDEBFF" font-family="Arial" font-size="14" lengthAdjust="spacing" textLength="133.1367" x="1072.03" y="631.9326">protected: boolean</text><line style="stroke:#38BDF8;stroke-width:0.5;" x1="1067.03" x2="1385.7409" y1="639.2344" y2="639.2344"/></g><!--class TeamPolicy--><g class="entity" data-qualified-name="TeamPolicy" data-source-line="59" id="ent0007"><rect fill="#10284A" height="162.0781" rx="6" ry="6" style="stroke:#38BDF8;stroke-width:0.5;" width="175.748" x="1473.51" y="501.45"/><rect fill="#173B69" height="32" rx="6" ry="6" style="stroke:#173B69;stroke-width:0.5;" width="175.748" x="1473.51" y="501.45"/><rect fill="#173B69" height="6" style="stroke:#173B69;stroke-width:0.5;" width="175.748" x="1473.51" y="527.45"/><rect fill="none" height="162.0781" rx="6" ry="6" style="stroke:#38BDF8;stroke-width:0.5;" width="175.748" x="1473.51" y="501.45"/><ellipse cx="1517.1285" cy="517.45" fill="#ADD1B2" rx="11" ry="11" style="stroke:#181818;stroke-width:1;"/><path d="M1520.0973,523.0906 Q1519.5191,523.3875 1518.8785,523.5281 Q1518.2379,523.6844 1517.5348,523.6844 Q1515.0348,523.6844 1513.7066,522.0437 Q1512.3941,520.3875 1512.3941,517.2625 Q1512.3941,514.1375 1513.7066,512.4812 Q1515.0348,510.825 1517.5348,510.825 Q1518.2379,510.825 1518.8785,510.9812 Q1519.5348,511.1375 1520.0973,511.4344 L1520.0973,514.1531 Q1519.4723,513.575 1518.8785,513.3094 Q1518.2848,513.0281 1517.6598,513.0281 Q1516.316,513.0281 1515.6285,514.1062 Q1514.941,515.1687 1514.941,517.2625 Q1514.941,519.3562 1515.6285,520.4344 Q1516.316,521.4969 1517.6598,521.4969 Q1518.2848,521.4969 1518.8785,521.2312 Q1519.4723,520.95 1520.0973,520.3719 L1520.0973,523.0906 Z " fill="#DDEBFF"/><text fill="#DDEBFF" font-family="Arial" font-size="14" lengthAdjust="spacing" textLength="80.1514" x="1537.4882" y="522.2967">TeamPolicy</text><line style="stroke:#38BDF8;stroke-width:0.5;" x1="1474.51" x2="1648.258" y1="533.45" y2="533.45"/><text fill="#DDEBFF" font-family="Arial" font-size="14" lengthAdjust="spacing" textLength="89.0586" x="1479.51" y="550.4451">name: string</text><text fill="#DDEBFF" font-family="Arial" font-size="14" lengthAdjust="spacing" textLength="127.1963" x="1479.51" y="566.742">description: string</text><text fill="#DDEBFF" font-family="Arial" font-size="14" lengthAdjust="spacing" textLength="162.5723" x="1479.51" y="583.0389">privacy: secret | closed</text><text fill="#DDEBFF" font-family="Arial" font-size="14" lengthAdjust="spacing" textLength="151.1631" x="1479.51" y="599.3357">notifications: boolean</text><text fill="#DDEBFF" font-family="Arial" font-size="14" lengthAdjust="spacing" textLength="84.3076" x="1479.51" y="615.6326">parent: slug</text><text fill="#DDEBFF" font-family="Arial" font-size="14" lengthAdjust="spacing" textLength="154.2393" x="1479.51" y="631.9295">rename_from: string[]</text><text fill="#DDEBFF" font-family="Arial" font-size="14" lengthAdjust="spacing" textLength="163.748" x="1479.51" y="648.2264">mode: present | absent</text><line style="stroke:#38BDF8;stroke-width:0.5;" x1="1474.51" x2="1648.258" y1="655.5281" y2="655.5281"/></g><!--class TeamMembership--><g class="entity" data-qualified-name="TeamMembership" data-source-line="69" id="ent0008"><rect fill="#10284A" height="96.8906" rx="6" ry="6" style="stroke:#38BDF8;stroke-width:0.5;" width="167.5107" x="1477.63" y="724.53"/><rect fill="#173B69" height="32" rx="6" ry="6" style="stroke:#173B69;stroke-width:0.5;" width="167.5107" x="1477.63" y="724.53"/><rect fill="#173B69" height="6" style="stroke:#173B69;stroke-width:0.5;" width="167.5107" x="1477.63" y="750.53"/><rect fill="none" height="96.8906" rx="6" ry="6" style="stroke:#38BDF8;stroke-width:0.5;" width="167.5107" x="1477.63" y="724.53"/><ellipse cx="1496.9498" cy="740.53" fill="#ADD1B2" rx="11" ry="11" style="stroke:#181818;stroke-width:1;"/><path d="M1499.9186,746.1706 Q1499.3404,746.4675 1498.6998,746.6081 Q1498.0592,746.7644 1497.3561,746.7644 Q1494.8561,746.7644 1493.5279,745.1238 Q1492.2154,743.4675 1492.2154,740.3425 Q1492.2154,737.2175 1493.5279,735.5613 Q1494.8561,733.905 1497.3561,733.905 Q1498.0592,733.905 1498.6998,734.0613 Q1499.3561,734.2175 1499.9186,734.5144 L1499.9186,737.2331 Q1499.2936,736.655 1498.6998,736.3894 Q1498.1061,736.1081 1497.4811,736.1081 Q1496.1373,736.1081 1495.4498,737.1863 Q1494.7623,738.2488 1494.7623,740.3425 Q1494.7623,742.4363 1495.4498,743.5144 Q1496.1373,744.5769 1497.4811,744.5769 Q1498.1061,744.5769 1498.6998,744.3113 Q1499.2936,744.03 1499.9186,743.4519 L1499.9186,746.1706 Z " fill="#DDEBFF"/><text fill="#DDEBFF" font-family="Arial" font-size="14" lengthAdjust="spacing" textLength="125.9111" x="1511.9098" y="745.3767">TeamMembership</text><line style="stroke:#38BDF8;stroke-width:0.5;" x1="1478.63" x2="1644.1407" y1="756.53" y2="756.53"/><text fill="#DDEBFF" font-family="Arial" font-size="14" lengthAdjust="spacing" textLength="137.6689" x="1483.63" y="773.5251">maintainers: login[]</text><text fill="#DDEBFF" font-family="Arial" font-size="14" lengthAdjust="spacing" textLength="120.6338" x="1483.63" y="789.822">members: login[]</text><text fill="#DDEBFF" font-family="Arial" font-size="14" lengthAdjust="spacing" textLength="155.5107" x="1483.63" y="806.1189">authoritative: boolean</text><line style="stroke:#38BDF8;stroke-width:0.5;" x1="1478.63" x2="1644.1407" y1="813.4206" y2="813.4206"/></g><!--class RoleHolders--><g class="entity" data-qualified-name="RoleHolders" data-source-line="75" id="ent0009"><rect fill="#10284A" height="96.8906" rx="6" ry="6" style="stroke:#38BDF8;stroke-width:0.5;" width="167.5107" x="1529.63" y="278.67"/><rect fill="#173B69" height="32" rx="6" ry="6" style="stroke:#173B69;stroke-width:0.5;" width="167.5107" x="1529.63" y="278.67"/><rect fill="#173B69" height="6" style="stroke:#173B69;stroke-width:0.5;" width="167.5107" x="1529.63" y="304.67"/><rect fill="none" height="96.8906" rx="6" ry="6" style="stroke:#38BDF8;stroke-width:0.5;" width="167.5107" x="1529.63" y="278.67"/><ellipse cx="1567.6622" cy="294.67" fill="#ADD1B2" rx="11" ry="11" style="stroke:#181818;stroke-width:1;"/><path d="M1570.6309,300.3106 Q1570.0528,300.6075 1569.4122,300.7481 Q1568.7716,300.9044 1568.0684,300.9044 Q1565.5684,300.9044 1564.2403,299.2637 Q1562.9278,297.6075 1562.9278,294.4825 Q1562.9278,291.3575 1564.2403,289.7012 Q1565.5684,288.045 1568.0684,288.045 Q1568.7716,288.045 1569.4122,288.2012 Q1570.0684,288.3575 1570.6309,288.6544 L1570.6309,291.3731 Q1570.0059,290.795 1569.4122,290.5294 Q1568.8184,290.2481 1568.1934,290.2481 Q1566.8497,290.2481 1566.1622,291.3262 Q1565.4747,292.3887 1565.4747,294.4825 Q1565.4747,296.5762 1566.1622,297.6544 Q1566.8497,298.7169 1568.1934,298.7169 Q1568.8184,298.7169 1569.4122,298.4512 Q1570.0059,298.17 1570.6309,297.5919 L1570.6309,300.3106 Z " fill="#DDEBFF"/><text fill="#DDEBFF" font-family="Arial" font-size="14" lengthAdjust="spacing" textLength="84.3281" x="1586.7804" y="299.5167">RoleHolders</text><line style="stroke:#38BDF8;stroke-width:0.5;" x1="1530.63" x2="1696.1407" y1="310.67" y2="310.67"/><text fill="#DDEBFF" font-family="Arial" font-size="14" lengthAdjust="spacing" textLength="92.0254" x="1535.63" y="327.6651">users: login[]</text><text fill="#DDEBFF" font-family="Arial" font-size="14" lengthAdjust="spacing" textLength="92.6475" x="1535.63" y="343.962">teams: slug[]</text><text fill="#DDEBFF" font-family="Arial" font-size="14" lengthAdjust="spacing" textLength="155.5107" x="1535.63" y="360.2589">authoritative: boolean</text><line style="stroke:#38BDF8;stroke-width:0.5;" x1="1530.63" x2="1696.1407" y1="367.5606" y2="367.5606"/></g><!--class PolicySet--><g class="entity" data-qualified-name="PolicySet" data-source-line="81" id="ent0010"><rect fill="#10284A" height="80.5938" rx="6" ry="6" style="stroke:#38BDF8;stroke-width:0.5;" width="232.7666" x="1753" y="39.59"/><rect fill="#173B69" height="32" rx="6" ry="6" style="stroke:#173B69;stroke-width:0.5;" width="232.7666" x="1753" y="39.59"/><rect fill="#173B69" height="6" style="stroke:#173B69;stroke-width:0.5;" width="232.7666" x="1753" y="65.59"/><rect fill="none" height="80.5938" rx="6" ry="6" style="stroke:#38BDF8;stroke-width:0.5;" width="232.7666" x="1753" y="39.59"/><ellipse cx="1833.2539" cy="55.59" fill="#ADD1B2" rx="11" ry="11" style="stroke:#181818;stroke-width:1;"/><path d="M1836.2227,61.2306 Q1835.6445,61.5275 1835.0039,61.6681 Q1834.3633,61.8244 1833.6602,61.8244 Q1831.1602,61.8244 1829.832,60.1837 Q1828.5195,58.5275 1828.5195,55.4025 Q1828.5195,52.2775 1829.832,50.6212 Q1831.1602,48.965 1833.6602,48.965 Q1834.3633,48.965 1835.0039,49.1212 Q1835.6602,49.2775 1836.2227,49.5744 L1836.2227,52.2931 Q1835.5977,51.715 1835.0039,51.4494 Q1834.4102,51.1681 1833.7852,51.1681 Q1832.4414,51.1681 1831.7539,52.2462 Q1831.0664,53.3087 1831.0664,55.4025 Q1831.0664,57.4962 1831.7539,58.5744 Q1832.4414,59.6369 1833.7852,59.6369 Q1834.4102,59.6369 1835.0039,59.3712 Q1835.5977,59.09 1836.2227,58.5119 L1836.2227,61.2306 Z " fill="#DDEBFF"/><text fill="#DDEBFF" font-family="Arial" font-size="14" lengthAdjust="spacing" textLength="63.7588" x="1853.7539" y="60.4367">PolicySet</text><line style="stroke:#38BDF8;stroke-width:0.5;" x1="1754" x2="1984.7666" y1="71.59" y2="71.59"/><text fill="#DDEBFF" font-family="Arial" font-size="14" lengthAdjust="spacing" textLength="145.2842" x="1759" y="88.5851">access: AccessPolicy</text><text fill="#DDEBFF" font-family="Arial" font-size="14" lengthAdjust="spacing" textLength="220.7666" x="1759" y="104.882">properties: Map&lt;name, value&gt;</text><line style="stroke:#38BDF8;stroke-width:0.5;" x1="1754" x2="1984.7666" y1="112.1837" y2="112.1837"/></g><!--class AccessPolicy--><g class="entity" data-qualified-name="AccessPolicy" data-source-line="86" id="ent0011"><rect fill="#10284A" height="80.5938" rx="6" ry="6" style="stroke:#38BDF8;stroke-width:0.5;" width="188.9209" x="1774.93" y="286.82"/><rect fill="#173B69" height="32" rx="6" ry="6" style="stroke:#173B69;stroke-width:0.5;" width="188.9209" x="1774.93" y="286.82"/><rect fill="#173B69" height="6" style="stroke:#173B69;stroke-width:0.5;" width="188.9209" x="1774.93" y="312.82"/><rect fill="none" height="80.5938" rx="6" ry="6" style="stroke:#38BDF8;stroke-width:0.5;" width="188.9209" x="1774.93" y="286.82"/><ellipse cx="1820.6693" cy="302.82" fill="#ADD1B2" rx="11" ry="11" style="stroke:#181818;stroke-width:1;"/><path d="M1823.638,308.4606 Q1823.0599,308.7575 1822.4193,308.8981 Q1821.7786,309.0544 1821.0755,309.0544 Q1818.5755,309.0544 1817.2474,307.4137 Q1815.9349,305.7575 1815.9349,302.6325 Q1815.9349,299.5075 1817.2474,297.8512 Q1818.5755,296.195 1821.0755,296.195 Q1821.7786,296.195 1822.4193,296.3512 Q1823.0755,296.5075 1823.638,296.8044 L1823.638,299.5231 Q1823.013,298.945 1822.4193,298.6794 Q1821.8255,298.3981 1821.2005,298.3981 Q1819.8568,298.3981 1819.1693,299.4762 Q1818.4818,300.5387 1818.4818,302.6325 Q1818.4818,304.7262 1819.1693,305.8044 Q1819.8568,306.8669 1821.2005,306.8669 Q1821.8255,306.8669 1822.4193,306.6012 Q1823.013,306.32 1823.638,305.7419 L1823.638,308.4606 Z " fill="#DDEBFF"/><text fill="#DDEBFF" font-family="Arial" font-size="14" lengthAdjust="spacing" textLength="88.9424" x="1841.1693" y="307.6667">AccessPolicy</text><line style="stroke:#38BDF8;stroke-width:0.5;" x1="1775.93" x2="1962.8509" y1="318.82" y2="318.82"/><text fill="#DDEBFF" font-family="Arial" font-size="14" lengthAdjust="spacing" textLength="176.2988" x="1780.93" y="335.8151">users: Map&lt;login, level&gt;</text><text fill="#DDEBFF" font-family="Arial" font-size="14" lengthAdjust="spacing" textLength="176.9209" x="1780.93" y="352.112">teams: Map&lt;slug, level&gt;</text><line style="stroke:#38BDF8;stroke-width:0.5;" x1="1775.93" x2="1962.8509" y1="359.4137" y2="359.4137"/></g><g class="entity" data-qualified-name="GMN24" data-source-line="105" id="ent0025"><path d="M668.43,553.22 L668.43,611.7512 A6,6 0 0 0 674.43,617.7512 L954.3416,617.7512 A6,6 0 0 0 960.3416,611.7512 L960.3416,557.22 L950.3416,547.22 L818.39,547.22 L814.39,408.63 L810.39,547.22 L674.43,547.22 A6,6 0 0 0 668.43,553.22" fill="#18223C" style="stroke:#A78BFA;stroke-width:0.5;"/><path d="M950.3416,547.22 L950.3416,554.22 A3,3 0 0 0 953.3416,557.22 L960.3416,557.22 L950.3416,547.22" fill="#18223C" style="stroke:#A78BFA;stroke-width:0.5;"/><text fill="#F8FAFC" font-family="Arial" font-size="13" lengthAdjust="spacing" textLength="270.9116" x="674.43" y="564.2869">The organisation defines a property here.</text><text fill="#F8FAFC" font-family="Arial" font-size="13" lengthAdjust="spacing" textLength="242.5249" x="674.43" y="579.4197">A repository answers it under its own</text><text fill="#F8FAFC" font-family="Arial" font-size="13" font-weight="700" lengthAdjust="spacing" textLength="76.4067" x="674.43" y="594.5525">properties</text><text fill="#F8FAFC" font-family="Arial" font-size="13" lengthAdjust="spacing" textLength="141.1719" x="754.9691" y="594.5525">map. Neither half can</text><text fill="#F8FAFC" font-family="Arial" font-size="13" lengthAdjust="spacing" textLength="142.6826" x="674.43" y="609.6853">stand in for the other.</text></g><g class="entity" data-qualified-name="GMN27" data-source-line="112" id="ent0028"><path d="M1756.55,568.36 L1756.55,596.6256 A6,6 0 0 0 1762.55,602.6256 L2062.2282,602.6256 A6,6 0 0 0 2068.2282,596.6256 L2068.2282,572.36 L2058.2282,562.36 L1913.08,562.36 L1876.1,367.71 L1905.08,562.36 L1762.55,562.36 A6,6 0 0 0 1756.55,568.36" fill="#18223C" style="stroke:#A78BFA;stroke-width:0.5;"/><path d="M2058.2282,562.36 L2058.2282,569.36 A3,3 0 0 0 2061.2282,572.36 L2068.2282,572.36 L2058.2282,562.36" fill="#18223C" style="stroke:#A78BFA;stroke-width:0.5;"/><text fill="#F8FAFC" font-family="Arial" font-size="13" lengthAdjust="spacing" textLength="286.8569" x="1762.55" y="579.4269">Declared from the repository side, including</text><text fill="#F8FAFC" font-family="Arial" font-size="13" lengthAdjust="spacing" textLength="290.6782" x="1762.55" y="594.5597">team grants: one grant, one place to read it.</text></g><!--reverse link OrganizationPolicy to OrganizationProfile--><g class="link" data-entity-1="ent0001" data-entity-2="ent0002" data-link-type="composition" data-source-line="91" id="lnk12"><path codeLine="91" d="M765.2102,91.1369 C612.1502,105.1869 391.08,139.68 209.39,229.78 C200.29,234.29 191.35,239.74 182.74,245.74" fill="none" id="OrganizationPolicy-backto-OrganizationProfile" style="stroke:#67E8F9;stroke-width:2;"/><polygon fill="#67E8F9" points="777.16,90.04,770.8195,86.6052,765.2102,91.1369,771.5508,94.5717,777.16,90.04" style="stroke:#67E8F9;stroke-width:2;stroke-linejoin:miter;stroke-miterlimit:10;"/><text fill="#DDEBFF" font-family="Arial" font-size="13" lengthAdjust="spacing" textLength="8.271" x="761.1634" y="87.2384">1</text><text fill="#DDEBFF" font-family="Arial" font-size="13" lengthAdjust="spacing" textLength="24.8066" x="165.1309" y="234.897">0..1</text></g><!--reverse link OrganizationPolicy to OrganizationMemberPolicy--><g class="link" data-entity-1="ent0001" data-entity-2="ent0003" data-link-type="composition" data-source-line="92" id="lnk13"><path codeLine="92" d="M765.7644,146.0666 C700.6244,171.7166 636.34,198.47 569.39,229.78 C563.61,232.48 557.75,235.28 551.86,238.15" fill="none" id="OrganizationPolicy-backto-OrganizationMemberPolicy" style="stroke:#67E8F9;stroke-width:2;"/><polygon fill="#67E8F9" points="776.93,141.67,769.8817,140.1465,765.7644,146.0666,772.8128,147.5902,776.93,141.67" style="stroke:#67E8F9;stroke-width:2;stroke-linejoin:miter;stroke-miterlimit:10;"/><text fill="#DDEBFF" font-family="Arial" font-size="13" lengthAdjust="spacing" textLength="8.271" x="760.9223" y="141.3693">1</text><text fill="#DDEBFF" font-family="Arial" font-size="13" lengthAdjust="spacing" textLength="24.8066" x="559.7841" y="230.8488">0..1</text></g><!--reverse link OrganizationPolicy to PropertyDefinition--><g class="link" data-entity-1="ent0001" data-entity-2="ent0004" data-link-type="composition" data-source-line="93" id="lnk14"><path codeLine="93" d="M896.4364,163.8495 C881.7264,192.9495 870.1,215.93 855,245.8" fill="none" id="OrganizationPolicy-backto-PropertyDefinition" style="stroke:#67E8F9;stroke-width:2;"/><polygon fill="#67E8F9" points="901.85,153.14,895.5734,156.6902,896.4364,163.8495,902.713,160.2993,901.85,153.14" style="stroke:#67E8F9;stroke-width:2;stroke-linejoin:miter;stroke-miterlimit:10;"/><text fill="#DDEBFF" font-family="Arial" font-size="13" lengthAdjust="spacing" textLength="56.9448" x="884.81" y="195.8469">by name</text><text fill="#DDEBFF" font-family="Arial" font-size="13" lengthAdjust="spacing" textLength="8.271" x="889.9993" y="172.9096">1</text><text fill="#DDEBFF" font-family="Arial" font-size="13" lengthAdjust="spacing" textLength="23.0356" x="834.5945" y="234.9624">0..*</text></g><!--reverse link OrganizationPolicy to OrganizationRulesetPolicy--><g class="link" data-entity-1="ent0001" data-entity-2="ent0005" data-link-type="composition" data-source-line="94" id="lnk15"><path codeLine="94" d="M1032.3766,160.9197 C1076.3466,198.3597 1120.08,235.6 1160.87,270.33" fill="none" id="OrganizationPolicy-backto-OrganizationRulesetPolicy" style="stroke:#67E8F9;stroke-width:2;"/><polygon fill="#67E8F9" points="1023.24,153.14,1025.215,160.0754,1032.3766,160.9197,1030.4015,153.9843,1023.24,153.14" style="stroke:#67E8F9;stroke-width:2;stroke-linejoin:miter;stroke-miterlimit:10;"/><text fill="#DDEBFF" font-family="Arial" font-size="13" lengthAdjust="spacing" textLength="8.271" x="1022.9593" y="172.9096">1</text><text fill="#DDEBFF" font-family="Arial" font-size="13" lengthAdjust="spacing" textLength="23.0356" x="1128.4864" y="259.5704">0..*</text></g><!--reverse link OrganizationPolicy to TeamPolicy--><g class="link" data-entity-1="ent0001" data-entity-2="ent0007" data-link-type="composition" data-source-line="95" id="lnk16"><path codeLine="95" d="M1111.7061,100.1027 C1208.3161,118.1427 1315.44,153.13 1394.39,229.78 C1460.35,293.83 1424.46,341.63 1464.39,424.45 C1476.77,450.14 1492.27,476.95 1507.22,500.99" fill="none" id="OrganizationPolicy-backto-TeamPolicy" style="stroke:#67E8F9;stroke-width:2;"/><polygon fill="#67E8F9" points="1099.91,97.9,1105.0738,102.9334,1111.7061,100.1027,1106.5423,95.0693,1099.91,97.9" style="stroke:#67E8F9;stroke-width:2;stroke-linejoin:miter;stroke-miterlimit:10;"/><text fill="#DDEBFF" font-family="Arial" font-size="13" lengthAdjust="spacing" textLength="46.9536" x="1465.39" y="331.6869">by slug</text><text fill="#DDEBFF" font-family="Arial" font-size="13" lengthAdjust="spacing" textLength="8.271" x="1107.4164" y="95.4461">1</text><text fill="#DDEBFF" font-family="Arial" font-size="13" lengthAdjust="spacing" textLength="23.0356" x="1478.5785" y="490.4142">0..*</text></g><!--reverse link OrganizationPolicy to RoleHolders--><g class="link" data-entity-1="ent0001" data-entity-2="ent0009" data-link-type="composition" data-source-line="96" id="lnk17"><path codeLine="96" d="M1111.7136,87.6746 C1222.2236,97.4246 1357.12,121.14 1472.39,182.78 C1515.33,205.74 1553.34,246.24 1579.04,278.35" fill="none" id="OrganizationPolicy-backto-RoleHolders" style="stroke:#67E8F9;stroke-width:2;"/><polygon fill="#67E8F9" points="1099.76,86.62,1105.3852,91.1318,1111.7136,87.6746,1106.0883,83.1628,1099.76,86.62" style="stroke:#67E8F9;stroke-width:2;stroke-linejoin:miter;stroke-miterlimit:10;"/><text fill="#DDEBFF" font-family="Arial" font-size="13" lengthAdjust="spacing" textLength="85.9854" x="1496.48" y="195.8469">by role name</text><text fill="#DDEBFF" font-family="Arial" font-size="13" lengthAdjust="spacing" textLength="8.271" x="1107.2596" y="83.655">1</text><text fill="#DDEBFF" font-family="Arial" font-size="13" lengthAdjust="spacing" textLength="23.0356" x="1549.5955" y="267.5139">0..*</text></g><!--reverse link OrganizationRulesetPolicy to RulesetRepositories--><g class="link" data-entity-1="ent0005" data-entity-2="ent0006" data-link-type="composition" data-source-line="97" id="lnk18"><path codeLine="97" d="M1226.39,396.03 C1226.39,435.53 1226.39,476.53 1226.39,517.68" fill="none" id="OrganizationRulesetPolicy-backto-RulesetRepositories" style="stroke:#67E8F9;stroke-width:2;"/><polygon fill="#67E8F9" points="1226.39,384.03,1222.39,390.03,1226.39,396.03,1230.39,390.03,1226.39,384.03" style="stroke:#67E8F9;stroke-width:2;stroke-linejoin:miter;stroke-miterlimit:10;"/><text fill="#DDEBFF" font-family="Arial" font-size="13" lengthAdjust="spacing" textLength="118.7139" x="1227.39" y="467.5169">which repositories</text><text fill="#DDEBFF" font-family="Arial" font-size="13" lengthAdjust="spacing" textLength="8.271" x="1217.9201" y="403.9557">1</text><text fill="#DDEBFF" font-family="Arial" font-size="13" lengthAdjust="spacing" textLength="8.271" x="1217.9678" y="506.845">1</text></g><!--reverse link TeamPolicy to TeamMembership--><g class="link" data-entity-1="ent0007" data-entity-2="ent0008" data-link-type="composition" data-source-line="98" id="lnk19"><path codeLine="98" d="M1561.39,675.97 C1561.39,696.48 1561.39,705.88 1561.39,724.17" fill="none" id="TeamPolicy-backto-TeamMembership" style="stroke:#67E8F9;stroke-width:2;"/><polygon fill="#67E8F9" points="1561.39,663.97,1557.39,669.97,1561.39,675.97,1565.39,669.97,1561.39,663.97" style="stroke:#67E8F9;stroke-width:2;stroke-linejoin:miter;stroke-miterlimit:10;"/><text fill="#DDEBFF" font-family="Arial" font-size="13" lengthAdjust="spacing" textLength="8.271" x="1553.0584" y="683.6894">1</text><text fill="#DDEBFF" font-family="Arial" font-size="13" lengthAdjust="spacing" textLength="24.8066" x="1535.7599" y="713.3283">0..1</text></g><!--link TeamPolicy to TeamPolicy--><g class="link" data-entity-1="ent0007" data-entity-2="ent0007" data-link-type="dependency" data-source-line="99" id="lnk20"><path codeLine="99" d="M1649.75,562.09 C1669.68,563.93 1684.26,570.73 1684.26,582.49 C1684.26,594.25 1674.6591,600.6028 1654.7291,602.4328" fill="none" id="TeamPolicy-to-TeamPolicy" style="stroke:#67E8F9;stroke-width:2;"/><polygon fill="#67E8F9" points="1649.75,602.89,1659.078,606.0503,1654.7291,602.4328,1658.3466,598.0838,1649.75,602.89" style="stroke:#67E8F9;stroke-width:2;stroke-linejoin:miter;stroke-miterlimit:10;"/><text fill="#DDEBFF" font-family="Arial" font-size="13" lengthAdjust="spacing" textLength="42.8975" x="1690.26" y="587.0569">parent</text><text fill="#DDEBFF" font-family="Arial" font-size="13" lengthAdjust="spacing" textLength="23.0356" x="1657.3974" y="557.026">0..*</text><text fill="#DDEBFF" font-family="Arial" font-size="13" lengthAdjust="spacing" textLength="24.8066" x="1657.1502" y="600.9092">0..1</text></g><!--link RoleHolders to TeamPolicy--><g class="link" data-entity-1="ent0009" data-entity-2="ent0007" data-link-type="dependency" data-source-line="100" id="lnk21"><path codeLine="100" d="M1603.6,375.77 C1596.37,411.04 1587.3457,455.0122 1578.8757,496.2622" fill="none" id="RoleHolders-to-TeamPolicy" style="stroke:#67E8F9;stroke-width:2;stroke-dasharray:7,7;"/><polygon fill="#67E8F9" points="1577.87,501.16,1583.5985,493.1485,1578.8757,496.2622,1575.762,491.5394,1577.87,501.16" style="stroke:#67E8F9;stroke-width:2;stroke-linejoin:miter;stroke-miterlimit:10;"/><text fill="#DDEBFF" font-family="Arial" font-size="13" lengthAdjust="spacing" textLength="58.8555" x="1588.39" y="467.5169">grants to</text><text fill="#DDEBFF" font-family="Arial" font-size="13" lengthAdjust="spacing" textLength="23.0356" x="1577.6093" y="395.743">0..*</text><text fill="#DDEBFF" font-family="Arial" font-size="13" lengthAdjust="spacing" textLength="23.0356" x="1555.3157" y="490.3215">0..*</text></g><!--reverse link PolicySet to AccessPolicy--><g class="link" data-entity-1="ent0010" data-entity-2="ent0011" data-link-type="composition" data-source-line="101" id="lnk22"><path codeLine="101" d="M1869.39,132.56 C1869.39,178.24 1869.39,240.84 1869.39,286.5" fill="none" id="PolicySet-backto-AccessPolicy" style="stroke:#67E8F9;stroke-width:2;"/><polygon fill="#67E8F9" points="1869.39,120.56,1865.39,126.56,1869.39,132.56,1873.39,126.56,1869.39,120.56" style="stroke:#67E8F9;stroke-width:2;stroke-linejoin:miter;stroke-miterlimit:10;"/><text fill="#DDEBFF" font-family="Arial" font-size="13" lengthAdjust="spacing" textLength="8.271" x="1860.7752" y="140.3151">1</text><text fill="#DDEBFF" font-family="Arial" font-size="13" lengthAdjust="spacing" textLength="24.8066" x="1843.4692" y="275.6085">0..1</text></g><!--link AccessPolicy to TeamPolicy--><g class="link" data-entity-1="ent0011" data-entity-2="ent0007" data-link-type="dependency" data-source-line="102" id="lnk23"><path codeLine="102" d="M1821.26,367.71 C1775.5,405.35 1709.4111,459.7132 1653.6111,505.6232" fill="none" id="AccessPolicy-to-TeamPolicy" style="stroke:#67E8F9;stroke-width:2;stroke-dasharray:7,7;"/><polygon fill="#67E8F9" points="1649.75,508.8,1659.2414,506.1707,1653.6111,505.6232,1654.1586,499.9929,1649.75,508.8" style="stroke:#67E8F9;stroke-width:2;stroke-linejoin:miter;stroke-miterlimit:10;"/><text fill="#DDEBFF" font-family="Arial" font-size="13" lengthAdjust="spacing" textLength="141.1084" x="1716.39" y="467.5169">grants a repository to</text><text fill="#DDEBFF" font-family="Arial" font-size="13" lengthAdjust="spacing" textLength="23.0356" x="1788.7592" y="387.4523">0..*</text><text fill="#DDEBFF" font-family="Arial" font-size="13" lengthAdjust="spacing" textLength="23.0356" x="1657.3974" y="499.6559">0..*</text></g><?plantuml-src bLPBRzms4BxhLx0-1lQclIwC1HBaq8lJmCsjA0YA6ab4A58bAM_Lnt_lp53PfTOoTdkmLnhEy-FCD_h1E6sd1eHCFGomCzDWgqfR5QFu9NJAcRzKCjvzyTReMVnT2J46tneB-_Lv5kBn04CD8QwFdrYOdMGN8uHa0DMUrFZer03tuakMpf-WDSwGsG5rmsGXGhfm-9obsUDllwDU0ZKixgATkdln5GNvdDrukuxsZ8AVlMqmrqFrxsRDkIOkccps8gPWN8Ul3KGTp4XQXLJxOLHkBYH7gAD9fQNrMbsOmQ2CBTxJqQG4GKuHmYhkPfObj9nghI98178mCN8Wvns8VqG0rU3FCM12-AkQmJXA6kK9P83HOwe-yANK7j5HnV4urHZWgbOmBpSuCovHPVPDlTQ7RxSw6rMtbYFc4czYC4b6qpdVjkZYZya4Q4gr1aRhP_aDvYZ1gTgMnoUaN_SaO_oYx0GopUFfSX3HALZydmAUjCf60ZdYYGKPmO9E-3vCDfdbzSqssiwsLMWhEN0HCp_m02Xh_H6Qh1BtvL4MIMXCea9bZJtgGoULHbWZkk4Nrp3MYvH6sJSOQmmuQOwoLpKzRBVXQY2tHWOStgf6Zd5fBp24UI60W59Jt92DYNmBD04gT91a7PJJ_KKjzJnYxBrO0dxaLpmvPRKSF1Tjm_aiJBTo1d--bfNazBsgfGkULD9zQIXlKaQbX1U-sM1dbhgTPtWoDF4Cu13GpMZh8oFdV3AjoHIpcefH1KQUk95xZ2B9DlXXLVorAwTqC-F4teoSChANI_Z7f6zzPrpsz7qFd4LgIZtUHr9q-HjO59JCdea0LmuMZgSQRdAOWVqL8I9tIckWpld0lrUM4OzCiHXAep8vik04xuM55x27hLMqdA2pZPrwzzETUFVm8Ev-tEtmSMkh_Z-hrRAzOlhkRelY4CgPM_46ypT9u0RRelav93VdTREoJzYEbllhVDUKTFA1lriKiHV7tkXUbEkcAXAy07mz22l5dEJ3mw7KFPMP1x4gQrWiThl39Z0Tqc2A8ldgtCyNsQnQUjMgj_bMvx9d2bGXZm3EKqf-4BxTw15iywyzqE90l2FZJKiAQO2yBJCrYnu2x53tGnb0kNYakaqIaqC4y24AVoIVZ_NXF8-Fx-i3qiku4v_1uFTf4BsohT1CQ37Xma9Ifuy5aIWLqjXLW5BA_bKD5sF_2N2mSSiAua1sK6GOJOCSa3V6yb66g2reuUx43of-lkV7qIeD25l-n3BfdCH_?></g></svg>