<svg xmlns="http://www.w3.org/2000/svg" xmlns:xlink="http://www.w3.org/1999/xlink" contentStyleType="text/css" data-diagram-type="DESCRIPTION" height="447px" preserveAspectRatio="none" style="width:668px;height:447px;" version="1.1" viewBox="0 0 668 447" width="668px" zoomAndPan="magnify"><?plantuml 1.2026.6?><defs/><g><!--cluster Octoform 0.4 ? offline configuration work--><g class="cluster" data-qualified-name="Octoform 0.4 . offline configuration work" data-source-line="7" id="ent0003"><rect fill="#0B1D35" height="371" rx="6" ry="6" style="stroke:#A78BFA;stroke-width:1;" width="340" x="260.52" y="62.13"/><text fill="#F8FAFC" font-family="Arial" font-size="14" font-weight="700" lengthAdjust="spacing" textLength="324.0166" x="268.5117" y="77.1251">Octoform 0.4 &#183; offline configuration work</text></g><!--cluster Authoring--><g class="cluster" data-qualified-name="Octoform 0.4 . offline configuration work.Authoring" data-source-line="8" id="ent0004"><rect fill="#0B1D35" height="187" rx="6" ry="6" style="stroke:#A78BFA;stroke-width:1;" width="219.41" x="320.32" y="105.13"/><text fill="#F8FAFC" font-family="Arial" font-size="14" font-weight="700" lengthAdjust="spacing" textLength="78.7705" x="390.6397" y="120.1251">Authoring</text></g><!--cluster Explanation--><g class="cluster" data-qualified-name="Octoform 0.4 . offline configuration work.Explanation" data-source-line="12" id="ent0007"><rect fill="#0B1D35" height="93" rx="6" ry="6" style="stroke:#A78BFA;stroke-width:1;" width="214.54" x="322.75" y="316.13"/><text fill="#F8FAFC" font-family="Arial" font-size="14" font-weight="700" lengthAdjust="spacing" textLength="93.3516" x="383.3442" y="331.1251">Explanation</text></g><!--entity Validate--><g class="entity" data-qualified-name="Octoform 0.4 . offline configuration work.Authoring.Validate" data-source-line="9" id="ent0005"><ellipse cx="430.0151" cy="255.131" fill="#10284A" rx="93.7051" ry="21.141" style="stroke:#A78BFA;stroke-width:0.5;"/><text fill="#F8FAFC" font-family="Arial" font-size="14" lengthAdjust="spacing" textLength="162.0801" x="348.9751" y="259.7795">validateConfiguration()</text></g><!--entity Migrate--><g class="entity" data-qualified-name="Octoform 0.4 . offline configuration work.Authoring.Migrate" data-source-line="10" id="ent0006"><ellipse cx="430.0179" cy="161.1296" fill="#10284A" rx="93.0979" ry="21.0196" style="stroke:#A78BFA;stroke-width:0.5;"/><text fill="#F8FAFC" font-family="Arial" font-size="14" lengthAdjust="spacing" textLength="160.7197" x="349.658" y="165.778">migrateConfiguration()</text></g><!--entity InspectConfig--><g class="entity" data-qualified-name="Octoform 0.4 . offline configuration work.Explanation.InspectConfig" data-source-line="13" id="ent0008"><ellipse cx="430.0206" cy="372.1341" fill="#10284A" rx="91.2706" ry="20.6541" style="stroke:#A78BFA;stroke-width:0.5;"/><text fill="#F8FAFC" font-family="Arial" font-size="14" lengthAdjust="spacing" textLength="156.6113" x="351.715" y="376.7826">inspectConfiguration()</text></g><!--entity Author--><g class="entity" data-qualified-name="Author" data-source-line="4" id="ent0001"><ellipse cx="75.8677" cy="225.48" fill="#10284A" rx="8" ry="8" style="stroke:#38BDF8;stroke-width:0.5;"/><path d="M75.8677,233.48 L75.8677,260.48 M62.8677,241.48 L88.8677,241.48 M75.8677,260.48 L62.8677,275.48 M75.8677,260.48 L88.8677,275.48" fill="none" style="stroke:#38BDF8;stroke-width:0.5;"/><text fill="#F8FAFC" font-family="Arial" font-size="14" lengthAdjust="spacing" textLength="91.3555" x="30.19" y="289.9751">Policy author</text></g><!--entity Operator--><g class="entity" data-qualified-name="Operator" data-source-line="5" id="ent0002"><ellipse cx="75.8667" cy="342.48" fill="#10284A" rx="8" ry="8" style="stroke:#38BDF8;stroke-width:0.5;"/><path d="M75.8667,350.48 L75.8667,377.48 M62.8667,358.48 L88.8667,358.48 M75.8667,377.48 L62.8667,392.48 M75.8667,377.48 L88.8667,392.48" fill="none" style="stroke:#38BDF8;stroke-width:0.5;"/><text fill="#F8FAFC" font-family="Arial" font-size="14" lengthAdjust="spacing" textLength="139.7334" x="6" y="406.9751">Repository operator</text></g><g class="entity" data-qualified-name="GMN15" data-source-line="26" id="ent0016"><path d="M206.73,12 L206.73,40.2656 A6,6 0 0 0 212.73,46.2656 L647.3086,46.2656 A6,6 0 0 0 653.3086,40.2656 L653.3086,16 L643.3086,6 L212.73,6 A6,6 0 0 0 206.73,12" fill="#18223C" style="stroke:#A78BFA;stroke-width:0.5;"/><path d="M643.3086,6 L643.3086,13 A3,3 0 0 0 646.3086,16 L653.3086,16 L643.3086,6" fill="#18223C" style="stroke:#A78BFA;stroke-width:1;"/><text fill="#F8FAFC" font-family="Arial" font-size="13" lengthAdjust="spacing" textLength="380.5547" x="212.73" y="23.0669">No use case in this view contacts GitHub or reads a token,</text><text fill="#F8FAFC" font-family="Arial" font-size="13" lengthAdjust="spacing" textLength="425.5786" x="212.73" y="38.1997">which is what makes them the cheapest checks in a pull request.</text></g><!--link Author to Validate--><g class="link" data-entity-1="ent0001" data-entity-2="ent0005" data-link-type="dependency" data-source-line="17" id="lnk9"><path d="M121.83,255.13 C175.6,255.13 262.01,255.13 331.17,255.13" fill="none" id="Author-to-Validate" style="stroke:#67E8F9;stroke-width:2;"/><polygon fill="#67E8F9" points="336.17,255.13,327.17,251.13,331.17,255.13,327.17,259.13,336.17,255.13" style="stroke:#67E8F9;stroke-width:2;stroke-linejoin:miter;stroke-miterlimit:10;"/></g><!--link Author to Migrate--><g class="link" data-entity-1="ent0001" data-entity-2="ent0006" data-link-type="dependency" data-source-line="18" id="lnk10"><path d="M121.79,241.05 C146.72,233.38 178.35,223.9 206.73,216.13 C259.46,201.7 314.8064,188.0598 359.2564,177.4598" fill="none" id="Author-to-Migrate" style="stroke:#67E8F9;stroke-width:2;"/><polygon fill="#67E8F9" points="364.12,176.3,354.4376,174.4968,359.2564,177.4598,356.2933,182.2786,364.12,176.3" style="stroke:#67E8F9;stroke-width:2;stroke-linejoin:miter;stroke-miterlimit:10;"/></g><!--link Author to InspectConfig--><g class="link" data-entity-1="ent0001" data-entity-2="ent0008" data-link-type="dependency" data-source-line="19" id="lnk11"><path d="M121.83,270.07 C187.19,291.78 303.4151,330.3932 372.4451,353.3332" fill="none" id="Author-to-InspectConfig" style="stroke:#67E8F9;stroke-width:2;"/><polygon fill="#67E8F9" points="377.19,354.91,369.9107,348.2759,372.4451,353.3332,367.3878,355.8676,377.19,354.91" style="stroke:#67E8F9;stroke-width:2;stroke-linejoin:miter;stroke-miterlimit:10;"/></g><!--link Operator to InspectConfig--><g class="link" data-entity-1="ent0002" data-entity-2="ent0008" data-link-type="dependency" data-source-line="20" id="lnk12"><path d="M146.02,372.13 C201.01,372.13 273.38,372.13 333.33,372.13" fill="none" id="Operator-to-InspectConfig" style="stroke:#67E8F9;stroke-width:2;"/><polygon fill="#67E8F9" points="338.33,372.13,329.33,368.13,333.33,372.13,329.33,376.13,338.33,372.13" style="stroke:#67E8F9;stroke-width:2;stroke-linejoin:miter;stroke-miterlimit:10;"/></g><!--link Migrate to Validate--><g class="link" data-entity-1="ent0006" data-entity-2="ent0005" data-link-type="dependency" data-source-line="22" id="lnk13"><path d="M430.02,182.38 C430.02,197.74 430.02,213.42 430.02,228.8" fill="none" id="Migrate-to-Validate" style="stroke:#67E8F9;stroke-width:2;stroke-dasharray:7,7;"/><polygon fill="#67E8F9" points="430.02,233.8,434.02,224.8,430.02,228.8,426.02,224.8,430.02,233.8" style="stroke:#67E8F9;stroke-width:2;stroke-linejoin:miter;stroke-miterlimit:10;"/><text fill="#DDEBFF" font-family="Arial" font-size="13" lengthAdjust="spacing" textLength="63.0068" x="387.02" y="212.6369">&#171;include&#187;</text></g><!--link InspectConfig to Validate--><g class="link" data-entity-1="ent0008" data-entity-2="ent0005" data-link-type="dependency" data-source-line="23" id="lnk14"><path d="M430.02,351.21 C430.02,330.18 430.02,302.91 430.02,281.66" fill="none" id="InspectConfig-to-Validate" style="stroke:#67E8F9;stroke-width:2;stroke-dasharray:7,7;"/><polygon fill="#67E8F9" points="430.02,276.66,426.02,285.66,430.02,281.66,434.02,285.66,430.02,276.66" style="stroke:#67E8F9;stroke-width:2;stroke-linejoin:miter;stroke-miterlimit:10;"/><text fill="#DDEBFF" font-family="Arial" font-size="13" lengthAdjust="spacing" textLength="63.0068" x="387.02" y="318.4369">&#171;include&#187;</text></g><!--link InspectConfig to GMN15--><g class="link" data-entity-1="ent0008" data-entity-2="ent0016" data-link-type="association" data-source-line="26" id="lnk17"><path d="M342.9,365.7 C283.45,356.03 209.65,332.32 176.23,274.63 C146.61,223.48 146.61,192.78 176.23,141.63 C205.35,91.36 262.93,62.84 315.9,46.73" fill="none" id="InspectConfig-GMN15" style="stroke:#67E8F9;stroke-width:2;stroke-dasharray:7,7;"/></g><?plantuml-src VLBBJkGm4BpxAshd1D8oui09eP4GGi21XpZi5JLE9sd5iOFjCA0LtyMTBwEJoOYCOFTYjRkwgf-_n5lN5uo7N7FBI-bRPnoN6JaWIbLd51BPPWdU6B8vH2pkWXFx2kfp7U82b70wcblydhkGHCrNX8uZvIdgTleOCoYIhnnZSQkSCiGMXyiZVBmZbAKJpx31brBrIj3KM8VOBF3N01tPXYebRdAAhpP-e4ziAIdoJ4uAodmsbzZR7sluCs6xZ5Qg-0_2zGRI-BTvzlENpf4V0x_b5vywRV0djQivD6g-6RFf10S7gw_oPhvj1JFNhinshZz0PY9Z-QMDOvoSJ7jVhSmEuJznnWVrFOQSGwjR-jRAJHWcW744uf5hINWMNW-Rp7eP2HUIB_j7QA6HgKWWFRA6_MybhsknDPInhYcZfOOJXeiS7jYQgUEK1yCsQL0dTBrpglFKAx0qx0iCzNq2?></g></svg>