<svg xmlns="http://www.w3.org/2000/svg" xmlns:xlink="http://www.w3.org/1999/xlink" contentStyleType="text/css" data-diagram-type="STATE" height="562px" preserveAspectRatio="none" style="width:1144px;height:562px;" version="1.1" viewBox="0 0 1144 562" width="1144px" zoomAndPan="magnify"><?plantuml 1.2026.6?><defs/><g><g class="entity" data-qualified-name="NoConfig" data-source-line="4" id="ent0001"><rect fill="#10284A" height="50" rx="6" ry="6" style="stroke:#38BDF8;stroke-width:0.5;" width="166.5146" x="487.18" y="86"/><line style="stroke:#38BDF8;stroke-width:0.5;" x1="487.18" x2="653.6946" y1="112.2969" y2="112.2969"/><text fill="#F8FAFC" font-family="Arial" font-size="14" lengthAdjust="spacing" textLength="146.5146" x="497.18" y="103.9951">NO_CONFIGURATION</text></g><g class="entity" data-qualified-name="Resolved" data-source-line="5" id="ent0002"><rect fill="#10284A" height="50" rx="6" ry="6" style="stroke:#38BDF8;stroke-width:0.5;" width="220.5049" x="460.19" y="196"/><line style="stroke:#38BDF8;stroke-width:0.5;" x1="460.19" x2="680.6949" y1="222.2969" y2="222.2969"/><text fill="#F8FAFC" font-family="Arial" font-size="14" lengthAdjust="spacing" textLength="200.5049" x="470.19" y="213.9951">CONFIGURATION_RESOLVED</text></g><g class="entity" data-qualified-name="Capabilities" data-source-line="6" id="ent0003"><rect fill="#10284A" height="50" rx="6" ry="6" style="stroke:#38BDF8;stroke-width:0.5;" width="216.8818" x="7" y="416"/><line style="stroke:#38BDF8;stroke-width:0.5;" x1="7" x2="223.8818" y1="442.2969" y2="442.2969"/><text fill="#F8FAFC" font-family="Arial" font-size="14" lengthAdjust="spacing" textLength="196.8818" x="17" y="433.9951">CAPABILITIES_ESTABLISHED</text></g><g class="entity" data-qualified-name="Findings" data-source-line="7" id="ent0004"><rect fill="#10284A" height="50" rx="6" ry="6" style="stroke:#38BDF8;stroke-width:0.5;" width="170.7119" x="259.08" y="416"/><line style="stroke:#38BDF8;stroke-width:0.5;" x1="259.08" x2="429.7919" y1="442.2969" y2="442.2969"/><text fill="#F8FAFC" font-family="Arial" font-size="14" lengthAdjust="spacing" textLength="150.7119" x="269.08" y="433.9951">FINDINGS_REPORTED</text></g><g class="entity" data-qualified-name="PlanPresented" data-source-line="8" id="ent0005"><rect fill="#10284A" height="50" rx="6" ry="6" style="stroke:#38BDF8;stroke-width:0.5;" width="146.6904" x="415.1" y="306"/><line style="stroke:#38BDF8;stroke-width:0.5;" x1="415.1" x2="561.7904" y1="332.2969" y2="332.2969"/><text fill="#F8FAFC" font-family="Arial" font-size="14" lengthAdjust="spacing" textLength="126.6904" x="425.1" y="323.9951">PLAN_PRESENTED</text></g><g class="entity" data-qualified-name="PlanSaved" data-source-line="9" id="ent0006"><rect fill="#10284A" height="50" rx="6" ry="6" style="stroke:#38BDF8;stroke-width:0.5;" width="110.959" x="596.96" y="306"/><line style="stroke:#38BDF8;stroke-width:0.5;" x1="596.96" x2="707.919" y1="332.2969" y2="332.2969"/><text fill="#F8FAFC" font-family="Arial" font-size="14" lengthAdjust="spacing" textLength="90.959" x="606.96" y="323.9951">PLAN_SAVED</text></g><g class="entity" data-qualified-name="Applied" data-source-line="10" id="ent0007"><rect fill="#10284A" height="50" rx="6" ry="6" style="stroke:#38BDF8;stroke-width:0.5;" width="153.9502" x="535.47" y="416"/><line style="stroke:#38BDF8;stroke-width:0.5;" x1="535.47" x2="689.4202" y1="442.2969" y2="442.2969"/><text fill="#F8FAFC" font-family="Arial" font-size="14" lengthAdjust="spacing" textLength="133.9502" x="545.47" y="433.9951">CHANGES_APPLIED</text></g><g class="entity" data-qualified-name="Types" data-source-line="11" id="ent0008"><rect fill="#10284A" height="50" rx="6" ry="6" style="stroke:#38BDF8;stroke-width:0.5;" width="147.4424" x="795.72" y="416"/><line style="stroke:#38BDF8;stroke-width:0.5;" x1="795.72" x2="943.1624" y1="442.2969" y2="442.2969"/><text fill="#F8FAFC" font-family="Arial" font-size="14" lengthAdjust="spacing" textLength="127.4424" x="805.72" y="433.9951">TYPES_PROPOSED</text></g><g class="entity" data-qualified-name="Properties" data-source-line="12" id="ent0009"><rect fill="#10284A" height="50" rx="6" ry="6" style="stroke:#38BDF8;stroke-width:0.5;" width="279.7793" x="849.55" y="306"/><line style="stroke:#38BDF8;stroke-width:0.5;" x1="849.55" x2="1129.3293" y1="332.2969" y2="332.2969"/><text fill="#F8FAFC" font-family="Arial" font-size="14" lengthAdjust="spacing" textLength="259.7793" x="859.55" y="323.9951">PROPERTY_SCHEMA_SYNCHRONIZED</text></g><g class="start_entity" data-qualified-name=".start." data-source-line="14" id="ent0010"><ellipse cx="570.44" cy="16" fill="#67E8F9" rx="10" ry="10" style="stroke:#222222;stroke-width:1;"/></g><g class="end_entity" data-qualified-name=".end." data-source-line="30" id="ent0024"><ellipse cx="612.44" cy="537" fill="none" rx="11" ry="11" style="stroke:#A78BFA;stroke-width:1;"/><ellipse cx="612.44" cy="537" fill="#222222" rx="6" ry="6" style="stroke:#A78BFA;stroke-width:1;"/></g><!--link *start* to NoConfig--><g class="link" data-entity-1="ent0010" data-entity-2="ent0001" data-link-type="dependency" data-source-line="14" id="lnk11"><path d="M570.44,26.17 C570.44,40.24 570.44,61.12 570.44,80.61" fill="none" id="*start*-to-NoConfig" style="stroke:#67E8F9;stroke-width:2;"/><polygon fill="#67E8F9" points="570.44,85.61,574.44,76.61,570.44,80.61,566.44,76.61,570.44,85.61" style="stroke:#67E8F9;stroke-width:2;stroke-linejoin:miter;stroke-miterlimit:10;"/></g><!--link NoConfig to NoConfig--><g class="link" data-entity-1="ent0001" data-entity-2="ent0001" data-link-type="dependency" data-source-line="15" id="lnk12"><path d="M523.81,85.75 C523.81,71.3 523.81,56 523.81,56 C523.81,56 473.69,56 473.69,56 C473.69,56 473.69,176 473.69,176 C473.69,176 528.81,176 528.81,176 C528.81,176 528.81,159.57 528.81,141.32" fill="none" id="NoConfig-to-NoConfig" style="stroke:#67E8F9;stroke-width:2;"/><polygon fill="#67E8F9" points="528.81,136.32,524.81,145.32,528.81,141.32,532.81,145.32,528.81,136.32" style="stroke:#67E8F9;stroke-width:2;stroke-linejoin:miter;stroke-miterlimit:10;"/><text fill="#DDEBFF" font-family="Arial" font-size="13" lengthAdjust="spacing" textLength="150.5029" x="317.69" y="114.5269">validateConfiguration()</text></g><!--link NoConfig to Resolved--><g class="link" data-entity-1="ent0001" data-entity-2="ent0002" data-link-type="dependency" data-source-line="16" id="lnk13"><path d="M570.44,136.24 C570.44,154 570.44,172.68 570.44,190.5" fill="none" id="NoConfig-to-Resolved" style="stroke:#67E8F9;stroke-width:2;"/><polygon fill="#67E8F9" points="570.44,195.5,574.44,186.5,570.44,190.5,566.44,186.5,570.44,195.5" style="stroke:#67E8F9;stroke-width:2;stroke-linejoin:miter;stroke-miterlimit:10;"/><text fill="#DDEBFF" font-family="Arial" font-size="13" lengthAdjust="spacing" textLength="150.5029" x="419.44" y="161.9369">validateConfiguration()</text></g><!--link NoConfig to Resolved--><g class="link" data-entity-1="ent0001" data-entity-2="ent0002" data-link-type="dependency" data-source-line="17" id="lnk14"><path d="M612.07,136.24 C612.07,154 612.07,172.68 612.07,190.5" fill="none" id="NoConfig-to-Resolved-1" style="stroke:#67E8F9;stroke-width:2;"/><polygon fill="#67E8F9" points="612.07,195.5,616.07,186.5,612.07,190.5,608.07,186.5,612.07,195.5" style="stroke:#67E8F9;stroke-width:2;stroke-linejoin:miter;stroke-miterlimit:10;"/><text fill="#DDEBFF" font-family="Arial" font-size="13" lengthAdjust="spacing" textLength="149.2397" x="462.07" y="178.9369">migrateConfiguration()</text></g><!--link Resolved to Resolved--><g class="link" data-entity-1="ent0002" data-entity-2="ent0002" data-link-type="dependency" data-source-line="19" id="lnk15"><path d="M667.2,195.68 C667.2,177.43 667.2,156 667.2,156 C667.2,156 694.31,156 694.31,156 C694.31,156 694.31,276 694.31,276 C694.31,276 652.78,276 652.78,276 C652.78,276 652.78,265.7 652.78,251.25" fill="none" id="Resolved-to-Resolved" style="stroke:#67E8F9;stroke-width:2;"/><polygon fill="#67E8F9" points="652.78,246.25,648.78,255.25,652.78,251.25,656.78,255.25,652.78,246.25" style="stroke:#67E8F9;stroke-width:2;stroke-linejoin:miter;stroke-miterlimit:10;"/><text fill="#DDEBFF" font-family="Arial" font-size="13" lengthAdjust="spacing" textLength="145.4248" x="700.31" y="209.3069">inspectConfiguration()</text></g><!--link Resolved to Capabilities--><g class="link" data-entity-1="ent0002" data-entity-2="ent0003" data-link-type="dependency" data-source-line="20" id="lnk16"><path d="M459.72,213 C325.04,213 115.44,213 115.44,213 C115.44,213 115.44,351.37 115.44,410.73" fill="none" id="Resolved-to-Capabilities" style="stroke:#67E8F9;stroke-width:2;"/><polygon fill="#67E8F9" points="115.44,415.73,119.44,406.73,115.44,410.73,111.44,406.73,115.44,415.73" style="stroke:#67E8F9;stroke-width:2;stroke-linejoin:miter;stroke-miterlimit:10;"/><text fill="#DDEBFF" font-family="Arial" font-size="13" lengthAdjust="spacing" textLength="133.0913" x="52.21" y="209.0669">inspectCapabilities()</text></g><!--link Resolved to Findings--><g class="link" data-entity-1="ent0002" data-entity-2="ent0004" data-link-type="dependency" data-source-line="21" id="lnk17"><path d="M459.92,229 C399.6,229 337.09,229 337.09,229 C337.09,229 337.09,354.69 337.09,410.85" fill="none" id="Resolved-to-Findings" style="stroke:#67E8F9;stroke-width:2;"/><polygon fill="#67E8F9" points="337.09,415.85,341.09,406.85,337.09,410.85,333.09,406.85,337.09,415.85" style="stroke:#67E8F9;stroke-width:2;stroke-linejoin:miter;stroke-miterlimit:10;"/><text fill="#DDEBFF" font-family="Arial" font-size="13" lengthAdjust="spacing" textLength="123.7095" x="213.09" y="257.0769">auditRepositories()</text></g><!--link Resolved to PlanPresented--><g class="link" data-entity-1="ent0002" data-entity-2="ent0005" data-link-type="dependency" data-source-line="22" id="lnk18"><path d="M510.99,246.24 C510.99,264 510.99,282.68 510.99,300.5" fill="none" id="Resolved-to-PlanPresented" style="stroke:#67E8F9;stroke-width:2;"/><polygon fill="#67E8F9" points="510.99,305.5,514.99,296.5,510.99,300.5,506.99,296.5,510.99,305.5" style="stroke:#67E8F9;stroke-width:2;stroke-linejoin:miter;stroke-miterlimit:10;"/><text fill="#DDEBFF" font-family="Arial" font-size="13" lengthAdjust="spacing" textLength="94.7578" x="415.99" y="271.9369">planChanges()</text></g><!--link Resolved to PlanSaved--><g class="link" data-entity-1="ent0002" data-entity-2="ent0006" data-link-type="dependency" data-source-line="23" id="lnk19"><path d="M624.87,246.24 C624.87,264 624.87,282.68 624.87,300.5" fill="none" id="Resolved-to-PlanSaved" style="stroke:#67E8F9;stroke-width:2;"/><polygon fill="#67E8F9" points="624.87,305.5,628.87,296.5,624.87,300.5,620.87,296.5,624.87,305.5" style="stroke:#67E8F9;stroke-width:2;stroke-linejoin:miter;stroke-miterlimit:10;"/><text fill="#DDEBFF" font-family="Arial" font-size="13" lengthAdjust="spacing" textLength="68.231" x="555.87" y="271.9369">savePlan()</text></g><!--link Resolved to Types--><g class="link" data-entity-1="ent0002" data-entity-2="ent0008" data-link-type="dependency" data-source-line="24" id="lnk20"><path d="M681.06,229 C748.82,229 822.64,229 822.64,229 C822.64,229 822.64,354.69 822.64,410.85" fill="none" id="Resolved-to-Types" style="stroke:#67E8F9;stroke-width:2;"/><polygon fill="#67E8F9" points="822.64,415.85,826.64,406.85,822.64,410.85,818.64,406.85,822.64,415.85" style="stroke:#67E8F9;stroke-width:2;stroke-linejoin:miter;stroke-miterlimit:10;"/><text fill="#DDEBFF" font-family="Arial" font-size="13" lengthAdjust="spacing" textLength="138.6963" x="683.64" y="247.6969">classifyRepositories()</text></g><!--link Resolved to Properties--><g class="link" data-entity-1="ent0002" data-entity-2="ent0009" data-link-type="dependency" data-source-line="25" id="lnk21"><path d="M681.08,213 C805.21,213 989.44,213 989.44,213 C989.44,213 989.44,266.01 989.44,300.69" fill="none" id="Resolved-to-Properties" style="stroke:#67E8F9;stroke-width:2;"/><polygon fill="#67E8F9" points="989.44,305.69,993.44,296.69,989.44,300.69,985.44,296.69,989.44,305.69" style="stroke:#67E8F9;stroke-width:2;stroke-linejoin:miter;stroke-miterlimit:10;"/><text fill="#DDEBFF" font-family="Arial" font-size="13" lengthAdjust="spacing" textLength="106.209" x="882.6" y="209.0669">syncProperties()</text></g><!--link PlanPresented to Applied--><g class="link" data-entity-1="ent0005" data-entity-2="ent0007" data-link-type="dependency" data-source-line="27" id="lnk22"><path d="M548.63,356.24 C548.63,374 548.63,392.68 548.63,410.5" fill="none" id="PlanPresented-to-Applied" style="stroke:#67E8F9;stroke-width:2;"/><polygon fill="#67E8F9" points="548.63,415.5,552.63,406.5,548.63,410.5,544.63,406.5,548.63,415.5" style="stroke:#67E8F9;stroke-width:2;stroke-linejoin:miter;stroke-miterlimit:10;"/><text fill="#DDEBFF" font-family="Arial" font-size="13" lengthAdjust="spacing" textLength="73.5757" x="474.63" y="381.9369">applyPlan()</text></g><!--link PlanSaved to Applied--><g class="link" data-entity-1="ent0006" data-entity-2="ent0007" data-link-type="dependency" data-source-line="28" id="lnk23"><path d="M643.19,356.24 C643.19,374 643.19,392.68 643.19,410.5" fill="none" id="PlanSaved-to-Applied" style="stroke:#67E8F9;stroke-width:2;"/><polygon fill="#67E8F9" points="643.19,415.5,647.19,406.5,643.19,410.5,639.19,406.5,643.19,415.5" style="stroke:#67E8F9;stroke-width:2;stroke-linejoin:miter;stroke-miterlimit:10;"/><text fill="#DDEBFF" font-family="Arial" font-size="13" lengthAdjust="spacing" textLength="113.7373" x="529.19" y="398.9369">applySavedPlan()</text></g><!--link Capabilities to *end*--><g class="link" data-entity-1="ent0003" data-entity-2="ent0024" data-link-type="dependency" data-source-line="30" id="lnk25"><path d="M115.44,466.49 C115.44,496.41 115.44,542 115.44,542 C115.44,542 527.47,542 597.51,542" fill="none" id="Capabilities-to-*end*" style="stroke:#67E8F9;stroke-width:2;"/><polygon fill="#67E8F9" points="602.51,542,593.51,538,597.51,542,593.51,546,602.51,542" style="stroke:#67E8F9;stroke-width:2;stroke-linejoin:miter;stroke-miterlimit:10;"/><text fill="#DDEBFF" font-family="Arial" font-size="13" lengthAdjust="spacing" textLength="86.1694" x="234.22" y="538.0669">exit class 0-5</text></g><!--link Findings to *end*--><g class="link" data-entity-1="ent0004" data-entity-2="ent0024" data-link-type="dependency" data-source-line="31" id="lnk26"><path d="M344.44,466.47 C344.44,494.91 344.44,537 344.44,537 C344.44,537 545.55,537 596.27,537" fill="none" id="Findings-to-*end*" style="stroke:#67E8F9;stroke-width:2;"/><polygon fill="#67E8F9" points="601.27,537,592.27,533,596.27,537,592.27,541,601.27,537" style="stroke:#67E8F9;stroke-width:2;stroke-linejoin:miter;stroke-miterlimit:10;"/><text fill="#DDEBFF" font-family="Arial" font-size="13" lengthAdjust="spacing" textLength="86.1694" x="350.59" y="533.0669">exit class 0-5</text></g><!--link PlanPresented to *end*--><g class="link" data-entity-1="ent0005" data-entity-2="ent0024" data-link-type="dependency" data-source-line="32" id="lnk27"><path d="M482.63,356.33 C482.63,410.15 482.63,531 482.63,531 C482.63,531 567.5,531 597.68,531" fill="none" id="PlanPresented-to-*end*" style="stroke:#67E8F9;stroke-width:2;"/><polygon fill="#67E8F9" points="602.68,531,593.68,527,597.68,531,593.68,535,602.68,531" style="stroke:#67E8F9;stroke-width:2;stroke-linejoin:miter;stroke-miterlimit:10;"/><text fill="#DDEBFF" font-family="Arial" font-size="13" lengthAdjust="spacing" textLength="86.1694" x="395.63" y="499.7569">exit class 0-5</text></g><!--link PlanSaved to *end*--><g class="link" data-entity-1="ent0006" data-entity-2="ent0024" data-link-type="dependency" data-source-line="33" id="lnk28"><path d="M698.67,356.33 C698.67,410.15 698.67,531 698.67,531 C698.67,531 649.45,531 627,531" fill="none" id="PlanSaved-to-*end*" style="stroke:#67E8F9;stroke-width:2;"/><polygon fill="#67E8F9" points="622,531,631,535,627,531,631,527,622,531" style="stroke:#67E8F9;stroke-width:2;stroke-linejoin:miter;stroke-miterlimit:10;"/><text fill="#DDEBFF" font-family="Arial" font-size="13" lengthAdjust="spacing" textLength="86.1694" x="699.67" y="478.0669">exit class 0-5</text></g><!--link Applied to *end*--><g class="link" data-entity-1="ent0007" data-entity-2="ent0024" data-link-type="dependency" data-source-line="34" id="lnk29"><path d="M612.44,466.47 C612.44,485.69 612.44,506.14 612.44,520.63" fill="none" id="Applied-to-*end*" style="stroke:#67E8F9;stroke-width:2;"/><polygon fill="#67E8F9" points="612.44,525.63,616.44,516.63,612.44,520.63,608.44,516.63,612.44,525.63" style="stroke:#67E8F9;stroke-width:2;stroke-linejoin:miter;stroke-miterlimit:10;"/><text fill="#DDEBFF" font-family="Arial" font-size="13" lengthAdjust="spacing" textLength="86.1694" x="525.44" y="492.1169">exit class 0-5</text></g><!--link Types to *end*--><g class="link" data-entity-1="ent0008" data-entity-2="ent0024" data-link-type="dependency" data-source-line="35" id="lnk30"><path d="M869.44,466.47 C869.44,494.91 869.44,537 869.44,537 C869.44,537 678.55,537 628.82,537" fill="none" id="Types-to-*end*" style="stroke:#67E8F9;stroke-width:2;"/><polygon fill="#67E8F9" points="623.82,537,632.82,541,628.82,537,632.82,533,623.82,537" style="stroke:#67E8F9;stroke-width:2;stroke-linejoin:miter;stroke-miterlimit:10;"/><text fill="#DDEBFF" font-family="Arial" font-size="13" lengthAdjust="spacing" textLength="86.1694" x="694.89" y="533.0669">exit class 0-5</text></g><!--link Properties to *end*--><g class="link" data-entity-1="ent0009" data-entity-2="ent0024" data-link-type="dependency" data-source-line="36" id="lnk31"><path d="M1036.25,356.45 C1036.25,412.57 1036.25,542 1036.25,542 C1036.25,542 691.68,542 627.5,542" fill="none" id="Properties-to-*end*" style="stroke:#67E8F9;stroke-width:2;"/><polygon fill="#67E8F9" points="622.5,542,631.5,546,627.5,542,631.5,538,622.5,542" style="stroke:#67E8F9;stroke-width:2;stroke-linejoin:miter;stroke-miterlimit:10;"/><text fill="#DDEBFF" font-family="Arial" font-size="13" lengthAdjust="spacing" textLength="86.1694" x="835.15" y="538.0669">exit class 0-5</text></g><?plantuml-src dTBDZfim403WEq_XxgcjbAgNNlPGoSkIn18r5gOhfLM5lC6RZEhO23khvkrh2ByfzB0dmFx6CvxX7UYzEXSIvUueJ_8Jd4ygiBz1bw8I9wH0ItSf9JALEveWi4uuYUveaeS9NPFDznHd9A5tI5X4JMZq2nmwD15v6l4aVeeU6vfAQzIhB7gA6NuWCSb8nFE8P_WX9dpRub2KuXaKE92s2rWJ-aZeXljZMP9chLo3Ba0VUiLYJ7FcCqUq8qm9pIfffNP3-iPn_3GoN8pBssAwyPLXncBI8boM2WQIxPW7B4rOmbkH-RuDfVYTACrsEG-tqJUSynqDjsb2oOykQMLAMJLt37v-_8LMgwz3HxkNoIgwHwz2GU7FlowSA-70wFSVfhvhzXly2GxL30zwSkD1srBktQsVyF4uHo6ZrTk8RgnUYtC1BfMbiU1CDMCdy_K1fVyEZq8VvcapPi-iVzRVjwQPeT_VAs4jl5p-cxgVO7tWHU-7XRfdqyhgWFONgg_btovj_g6i6TDij32OTBB6zNzpZ-GVSDU2qUVLbw3ltgBujx95DXGsIxfg5y6rdyifXXOkcRy0?></g></svg>