<svg xmlns="http://www.w3.org/2000/svg" xmlns:xlink="http://www.w3.org/1999/xlink" contentStyleType="text/css" data-diagram-type="STATE" height="873px" preserveAspectRatio="none" style="width:1043px;height:873px;" version="1.1" viewBox="0 0 1043 873" width="1043px" zoomAndPan="magnify"><?plantuml 1.2026.6?><defs/><g><g class="start_entity" data-qualified-name=".start." data-source-line="3" id="ent0001"><ellipse cx="218.94" cy="16" fill="#67E8F9" rx="10" ry="10" style="stroke:#222222;stroke-width:1;"/></g><g class="entity" data-qualified-name="Candidate" data-source-line="3" id="ent0002"><rect fill="#10284A" height="50" rx="6" ry="6" style="stroke:#38BDF8;stroke-width:0.5;" width="91.5723" x="173.15" y="103"/><line style="stroke:#38BDF8;stroke-width:0.5;" x1="173.15" x2="264.7223" y1="129.2969" y2="129.2969"/><text fill="#F8FAFC" font-family="Arial" font-size="14" lengthAdjust="spacing" textLength="71.5723" x="183.15" y="120.9951">Candidate</text></g><g class="entity" data-qualified-name="NoDrift" data-source-line="4" id="ent0004"><rect fill="#10284A" height="50" rx="6" ry="6" style="stroke:#38BDF8;stroke-width:0.5;" width="69.8818" x="7" y="310"/><line style="stroke:#38BDF8;stroke-width:0.5;" x1="7" x2="76.8818" y1="336.2969" y2="336.2969"/><text fill="#F8FAFC" font-family="Arial" font-size="14" lengthAdjust="spacing" textLength="49.8818" x="17" y="327.9951">NoDrift</text></g><g class="entity" data-qualified-name="Blocked" data-source-line="5" id="ent0006"><rect fill="#10284A" height="50" rx="6" ry="6" style="stroke:#38BDF8;stroke-width:0.5;" width="75.3643" x="181.26" y="230"/><line style="stroke:#38BDF8;stroke-width:0.5;" x1="181.26" x2="256.6243" y1="256.2969" y2="256.2969"/><text fill="#F8FAFC" font-family="Arial" font-size="14" lengthAdjust="spacing" textLength="55.3643" x="191.26" y="247.9951">Blocked</text></g><g class="entity" data-qualified-name="Executable" data-source-line="6" id="ent0008"><rect fill="#10284A" height="50" rx="6" ry="6" style="stroke:#38BDF8;stroke-width:0.5;" width="97.7725" x="440.05" y="230"/><line style="stroke:#38BDF8;stroke-width:0.5;" x1="440.05" x2="537.8225" y1="256.2969" y2="256.2969"/><text fill="#F8FAFC" font-family="Arial" font-size="14" lengthAdjust="spacing" textLength="77.7725" x="450.05" y="247.9951">Executable</text></g><g class="end_entity" data-qualified-name=".end." data-source-line="7" id="ent0010"><ellipse cx="470.94" cy="848" fill="none" rx="11" ry="11" style="stroke:#A78BFA;stroke-width:1;"/><ellipse cx="470.94" cy="848" fill="#222222" rx="6" ry="6" style="stroke:#A78BFA;stroke-width:1;"/></g><g class="entity" data-qualified-name="ReportedOnly" data-source-line="8" id="ent0012"><rect fill="#10284A" height="50" rx="6" ry="6" style="stroke:#38BDF8;stroke-width:0.5;" width="116.6055" x="160.64" y="470"/><line style="stroke:#38BDF8;stroke-width:0.5;" x1="160.64" x2="277.2455" y1="496.2969" y2="496.2969"/><text fill="#F8FAFC" font-family="Arial" font-size="14" lengthAdjust="spacing" textLength="96.6055" x="170.64" y="487.9951">ReportedOnly</text></g><g class="entity" data-qualified-name="Planned" data-source-line="10" id="ent0015"><rect fill="#10284A" height="50" rx="6" ry="6" style="stroke:#38BDF8;stroke-width:0.5;" width="76.1572" x="452.86" y="390"/><line style="stroke:#38BDF8;stroke-width:0.5;" x1="452.86" x2="529.0172" y1="416.2969" y2="416.2969"/><text fill="#F8FAFC" font-family="Arial" font-size="14" lengthAdjust="spacing" textLength="56.1572" x="462.86" y="407.9951">Planned</text></g><g class="entity" data-qualified-name="Declined" data-source-line="12" id="ent0018"><rect fill="#10284A" height="50" rx="6" ry="6" style="stroke:#38BDF8;stroke-width:0.5;" width="81.2432" x="598.32" y="630"/><line style="stroke:#38BDF8;stroke-width:0.5;" x1="598.32" x2="679.5632" y1="656.2969" y2="656.2969"/><text fill="#F8FAFC" font-family="Arial" font-size="14" lengthAdjust="spacing" textLength="61.2432" x="608.32" y="647.9951">Declined</text></g><g class="entity" data-qualified-name="Attempting" data-source-line="13" id="ent0020"><rect fill="#10284A" height="50" rx="6" ry="6" style="stroke:#38BDF8;stroke-width:0.5;" width="98.832" x="670.52" y="550"/><line style="stroke:#38BDF8;stroke-width:0.5;" x1="670.52" x2="769.352" y1="576.2969" y2="576.2969"/><text fill="#F8FAFC" font-family="Arial" font-size="14" lengthAdjust="spacing" textLength="78.832" x="680.52" y="567.9951">Attempting</text></g><g class="entity" data-qualified-name="Succeeded" data-source-line="15" id="ent0023"><rect fill="#10284A" height="50" rx="6" ry="6" style="stroke:#38BDF8;stroke-width:0.5;" width="96.7676" x="657.56" y="710"/><line style="stroke:#38BDF8;stroke-width:0.5;" x1="657.56" x2="754.3276" y1="736.2969" y2="736.2969"/><text fill="#F8FAFC" font-family="Arial" font-size="14" lengthAdjust="spacing" textLength="76.7676" x="667.56" y="727.9951">Succeeded</text></g><g class="entity" data-qualified-name="Failed" data-source-line="16" id="ent0025"><rect fill="#10284A" height="50" rx="6" ry="6" style="stroke:#38BDF8;stroke-width:0.5;" width="61.9111" x="841.99" y="710"/><line style="stroke:#38BDF8;stroke-width:0.5;" x1="841.99" x2="903.9011" y1="736.2969" y2="736.2969"/><text fill="#F8FAFC" font-family="Arial" font-size="14" lengthAdjust="spacing" textLength="41.9111" x="851.99" y="727.9951">Failed</text></g><!--link *start* to Candidate--><g class="link" data-entity-1="ent0001" data-entity-2="ent0002" data-link-type="dependency" data-source-line="3" id="lnk3"><path d="M218.94,26.38 C218.94,43.11 218.94,73.59 218.94,97.63" fill="none" id="*start*-to-Candidate" style="stroke:#67E8F9;stroke-width:2;"/><polygon fill="#67E8F9" points="218.94,102.63,222.94,93.63,218.94,97.63,214.94,93.63,218.94,102.63" style="stroke:#67E8F9;stroke-width:2;stroke-linejoin:miter;stroke-miterlimit:10;"/><text fill="#DDEBFF" font-family="Arial" font-size="13" lengthAdjust="spacing" textLength="218.8037" x="219.94" y="69.0669">declared field and observed state</text></g><!--link Candidate to NoDrift--><g class="link" data-entity-1="ent0002" data-entity-2="ent0004" data-link-type="dependency" data-source-line="4" id="lnk5"><path d="M172.88,138.54 C145.96,146.31 113.2,159.91 91.94,183 C58.92,218.85 48.249,272.0836 44.439,304.7636" fill="none" id="Candidate-to-NoDrift" style="stroke:#67E8F9;stroke-width:2;"/><polygon fill="#67E8F9" points="43.86,309.73,48.8753,301.2538,44.439,304.7636,40.9291,300.3273,43.86,309.73" style="stroke:#67E8F9;stroke-width:2;stroke-linejoin:miter;stroke-miterlimit:10;"/><text fill="#DDEBFF" font-family="Arial" font-size="13" lengthAdjust="spacing" textLength="115.1211" x="92.94" y="196.0669">equivalent values</text></g><!--link Candidate to Blocked--><g class="link" data-entity-1="ent0002" data-entity-2="ent0006" data-link-type="dependency" data-source-line="5" id="lnk7"><path d="M217.7,153.31 C217.13,167.02 216.65,184.47 216.94,200 C217.12,209.66 217.2856,215.2938 217.6456,224.5438" fill="none" id="Candidate-to-Blocked" style="stroke:#67E8F9;stroke-width:2;"/><polygon fill="#67E8F9" points="217.84,229.54,221.487,220.3913,217.6456,224.5438,213.493,220.7024,217.84,229.54" style="stroke:#67E8F9;stroke-width:2;stroke-linejoin:miter;stroke-miterlimit:10;"/><text fill="#DDEBFF" font-family="Arial" font-size="13" lengthAdjust="spacing" textLength="222.644" x="217.94" y="196.0669">unreadable, unavailable or unsafe</text></g><!--link Candidate to Executable--><g class="link" data-entity-1="ent0002" data-entity-2="ent0008" data-link-type="dependency" data-source-line="6" id="lnk9"><path d="M265.19,129.93 C314.11,133.07 391.46,144.39 444.94,183 C461.05,194.63 470.4339,209.596 477.6139,225.236" fill="none" id="Candidate-to-Executable" style="stroke:#67E8F9;stroke-width:2;"/><polygon fill="#67E8F9" points="479.7,229.78,479.5803,219.9319,477.6139,225.236,472.3098,223.2696,479.7,229.78" style="stroke:#67E8F9;stroke-width:2;stroke-linejoin:miter;stroke-miterlimit:10;"/><text fill="#DDEBFF" font-family="Arial" font-size="13" lengthAdjust="spacing" textLength="247.4063" x="462.08" y="196.0669">readable drift and capability evidence</text></g><!--link NoDrift to *end*--><g class="link" data-entity-1="ent0004" data-entity-2="ent0010" data-link-type="dependency" data-source-line="7" id="lnk11"><path d="M40.19,360.35 C38.12,391.36 34.94,446.64 34.94,494 C34.94,494 34.94,494 34.94,736 C34.94,826.41 386.4835,843.8933 454.7335,846.4433" fill="none" id="NoDrift-to-*end*" style="stroke:#67E8F9;stroke-width:2;"/><polygon fill="#67E8F9" points="459.73,846.63,450.8856,842.2968,454.7335,846.4433,450.5869,850.2912,459.73,846.63" style="stroke:#67E8F9;stroke-width:2;stroke-linejoin:miter;stroke-miterlimit:10;"/><text fill="#DDEBFF" font-family="Arial" font-size="13" lengthAdjust="spacing" textLength="129.4668" x="35.94" y="579.5669">omitted from report</text></g><!--link Blocked to ReportedOnly--><g class="link" data-entity-1="ent0006" data-entity-2="ent0012" data-link-type="dependency" data-source-line="8" id="lnk13"><path d="M218.94,280.13 C218.94,325.75 218.94,419.14 218.94,464.81" fill="none" id="Blocked-to-ReportedOnly" style="stroke:#67E8F9;stroke-width:2;"/><polygon fill="#67E8F9" points="218.94,469.81,222.94,460.81,218.94,464.81,214.94,460.81,218.94,469.81" style="stroke:#67E8F9;stroke-width:2;stroke-linejoin:miter;stroke-miterlimit:10;"/><text fill="#DDEBFF" font-family="Arial" font-size="13" lengthAdjust="spacing" textLength="102.9146" x="219.94" y="339.5669">reason retained</text></g><!--link ReportedOnly to *end*--><g class="link" data-entity-1="ent0012" data-entity-2="ent0010" data-link-type="dependency" data-source-line="9" id="lnk14"><path d="M211.77,520.22 C202.31,556.99 189.74,628.09 215.94,680 C268.4,783.94 414.2067,831.2164 455.5267,842.8364" fill="none" id="ReportedOnly-to-*end*" style="stroke:#67E8F9;stroke-width:2;"/><polygon fill="#67E8F9" points="460.34,844.19,452.7589,837.9029,455.5267,842.8364,450.5932,845.6042,460.34,844.19" style="stroke:#67E8F9;stroke-width:2;stroke-linejoin:miter;stroke-miterlimit:10;"/><text fill="#DDEBFF" font-family="Arial" font-size="13" lengthAdjust="spacing" textLength="153.772" x="216.94" y="659.5669">never passed to applier</text></g><!--link Executable to Planned--><g class="link" data-entity-1="ent0008" data-entity-2="ent0015" data-link-type="dependency" data-source-line="10" id="lnk16"><path d="M489.25,280.34 C489.62,310.03 490.1977,354.9304 490.5677,384.6304" fill="none" id="Executable-to-Planned" style="stroke:#67E8F9;stroke-width:2;"/><polygon fill="#67E8F9" points="490.63,389.63,494.5176,380.5809,490.5677,384.6304,486.5182,380.6805,490.63,389.63" style="stroke:#67E8F9;stroke-width:2;stroke-linejoin:miter;stroke-miterlimit:10;"/><text fill="#DDEBFF" font-family="Arial" font-size="13" lengthAdjust="spacing" textLength="170.0791" x="491.24" y="339.5669">included in displayed plan</text></g><!--link Planned to *end*--><g class="link" data-entity-1="ent0015" data-entity-2="ent0010" data-link-type="dependency" data-source-line="11" id="lnk17"><path d="M477.05,440.35 C455.86,479.04 416.4,557.59 401.94,630 C385.3,713.35 442.4589,805.6318 462.0989,834.3718" fill="none" id="Planned-to-*end*" style="stroke:#67E8F9;stroke-width:2;"/><polygon fill="#67E8F9" points="464.92,838.5,463.1446,828.8125,462.0989,834.3718,456.5396,833.3262,464.92,838.5" style="stroke:#67E8F9;stroke-width:2;stroke-linejoin:miter;stroke-miterlimit:10;"/><text fill="#DDEBFF" font-family="Arial" font-size="13" lengthAdjust="spacing" textLength="177.4868" x="402.94" y="659.5669">plan command is read-only</text></g><!--link Planned to Declined--><g class="link" data-entity-1="ent0015" data-entity-2="ent0018" data-link-type="dependency" data-source-line="12" id="lnk19"><path d="M485.88,440.29 C482.53,462.14 480.59,494.62 491.94,520 C513.66,568.55 558.25,604.4517 593.68,627.5217" fill="none" id="Planned-to-Declined" style="stroke:#67E8F9;stroke-width:2;"/><polygon fill="#67E8F9" points="597.87,630.25,592.5106,621.987,593.68,627.5217,588.1453,628.6911,597.87,630.25" style="stroke:#67E8F9;stroke-width:2;stroke-linejoin:miter;stroke-miterlimit:10;"/><text fill="#DDEBFF" font-family="Arial" font-size="13" lengthAdjust="spacing" textLength="175.627" x="492.94" y="499.5669">apply confirmation refused</text></g><!--link Planned to Attempting--><g class="link" data-entity-1="ent0015" data-entity-2="ent0020" data-link-type="dependency" data-source-line="13" id="lnk21"><path d="M529.45,417.62 C570.69,421.32 635.75,433.09 676.94,470 C700.22,490.86 710.1725,521.3767 715.1325,544.9967" fill="none" id="Planned-to-Attempting" style="stroke:#67E8F9;stroke-width:2;"/><polygon fill="#67E8F9" points="716.16,549.89,718.225,540.2601,715.1325,544.9967,710.3958,541.9041,716.16,549.89" style="stroke:#67E8F9;stroke-width:2;stroke-linejoin:miter;stroke-miterlimit:10;"/><text fill="#DDEBFF" font-family="Arial" font-size="13" lengthAdjust="spacing" textLength="119.1963" x="708.17" y="499.5669">confirmed or --yes</text></g><!--link Declined to *end*--><g class="link" data-entity-1="ent0018" data-entity-2="ent0010" data-link-type="dependency" data-source-line="14" id="lnk22"><path d="M597.84,679.17 C584.54,687.81 570.3,698.38 558.94,710 C518.63,751.24 488.8342,809.2378 477.5242,832.9278" fill="none" id="Declined-to-*end*" style="stroke:#67E8F9;stroke-width:2;"/><polygon fill="#67E8F9" points="475.37,837.44,482.8572,831.0415,477.5242,832.9278,475.6378,827.5948,475.37,837.44" style="stroke:#67E8F9;stroke-width:2;stroke-linejoin:miter;stroke-miterlimit:10;"/><text fill="#DDEBFF" font-family="Arial" font-size="13" lengthAdjust="spacing" textLength="79.1934" x="559.94" y="739.5669">no mutation</text></g><!--link Attempting to Succeeded--><g class="link" data-entity-1="ent0020" data-entity-2="ent0023" data-link-type="dependency" data-source-line="15" id="lnk24"><path d="M717.78,600.34 C715.15,630.03 711.171,674.9495 708.541,704.6495" fill="none" id="Attempting-to-Succeeded" style="stroke:#67E8F9;stroke-width:2;"/><polygon fill="#67E8F9" points="708.1,709.63,712.8783,701.0179,708.541,704.6495,704.9095,700.3123,708.1,709.63" style="stroke:#67E8F9;stroke-width:2;stroke-linejoin:miter;stroke-miterlimit:10;"/><text fill="#DDEBFF" font-family="Arial" font-size="13" lengthAdjust="spacing" textLength="164.2773" x="716.01" y="659.5669">endpoint group succeeds</text></g><!--link Attempting to Failed--><g class="link" data-entity-1="ent0020" data-entity-2="ent0025" data-link-type="dependency" data-source-line="16" id="lnk26"><path d="M769.47,577.21 C808.39,581.1 860.32,593.41 886.94,630 C903.77,653.13 896.6236,682.389 887.0836,705.139" fill="none" id="Attempting-to-Failed" style="stroke:#67E8F9;stroke-width:2;"/><polygon fill="#67E8F9" points="885.15,709.75,892.3192,702.9971,887.0836,705.139,884.9416,699.9033,885.15,709.75" style="stroke:#67E8F9;stroke-width:2;stroke-linejoin:miter;stroke-miterlimit:10;"/><text fill="#DDEBFF" font-family="Arial" font-size="13" lengthAdjust="spacing" textLength="130.4888" x="897.32" y="659.5669">endpoint group fails</text></g><!--link Succeeded to *end*--><g class="link" data-entity-1="ent0023" data-entity-2="ent0010" data-link-type="dependency" data-source-line="17" id="lnk27"><path d="M657.25,759 C600.25,785.92 514.4109,826.4642 485.0309,840.3442" fill="none" id="Succeeded-to-*end*" style="stroke:#67E8F9;stroke-width:2;"/><polygon fill="#67E8F9" points="480.51,842.48,490.3562,842.2523,485.0309,840.3442,486.9389,835.0189,480.51,842.48" style="stroke:#67E8F9;stroke-width:2;stroke-linejoin:miter;stroke-miterlimit:10;"/><text fill="#DDEBFF" font-family="Arial" font-size="13" lengthAdjust="spacing" textLength="117.4253" x="589.44" y="803.0669">outcome reported</text></g><!--link Failed to *end*--><g class="link" data-entity-1="ent0025" data-entity-2="ent0010" data-link-type="dependency" data-source-line="18" id="lnk28"><path d="M841.72,753.09 C810.7,769.34 761.33,793.29 715.94,807 C628.06,833.54 521.7959,843.2342 486.9059,845.8642" fill="none" id="Failed-to-*end*" style="stroke:#67E8F9;stroke-width:2;"/><polygon fill="#67E8F9" points="481.92,846.24,491.1952,849.5522,486.9059,845.8642,490.5939,841.5748,481.92,846.24" style="stroke:#67E8F9;stroke-width:2;stroke-linejoin:miter;stroke-miterlimit:10;"/><text fill="#DDEBFF" font-family="Arial" font-size="13" lengthAdjust="spacing" textLength="242.4868" x="761.42" y="803.0669">error reported; no automatic rollback</text></g><?plantuml-src RLBBJiCm4BpxAvOh8dn0aP20mX4G7152Mti3g_g57n7vUzPfGzgAa-FTcTaPRyxOQriDmKVv8aUNN9rLwkty7Rhk6kxG6pPO25PWI5jCPA1diWQa0s6JAGrIoaKmQa4txcDO9-wBCEcxye2MV04vAkKJvAqDUYigAwW-4HhSMBgGRnoGRRj0I7BDs9_EkFyXNSi4MS5C1JFDRGOrHjomvJ823Mp8QrAphyPlELSG79VIWgNWH2M6LDJigQ5UfXAP9s_7tPmSl1m5sPDHH-r5rTD02IBcB38b0CPecP8wyDp0pnQzdyBlDs7a0mpdQ76KYnnUpQ15lPL11-TQJCvJ-2w8WoFiMdR6E_KsVXI6xpavB3mbwAkOEsBSo4kuMDX_2cUFbfOieEj6sToVua7G04u2DKbrG6-0rweraPaCa3SniFm3dodK27dNogUK1zdvV_XUwbajWWVhgqKUWlQRapnxYGL1AKc0kN_L76CjeJs3XXIitQ3U_W80?></g></svg>